<?xml version="1.0" encoding="UTF-8" standalone="no"?>
<!DOCTYPE svg PUBLIC "-//W3C//DTD SVG 1.1//EN"
 "http://www.w3.org/Graphics/SVG/1.1/DTD/svg11.dtd">
<!-- Generated by graphviz version 2.40.1 (20161225.0304)
 -->
<!-- Title: G Pages: 1 -->
<svg width="682pt" height="1809pt"
 viewBox="0.00 0.00 682.21 1809.00" xmlns="http://www.w3.org/2000/svg" xmlns:xlink="http://www.w3.org/1999/xlink">
<g id="graph0" class="graph" transform="scale(1 1) rotate(0) translate(4 1805)">
<title>G</title>
<polygon fill="#ffffff" stroke="transparent" points="-4,4 -4,-1805 678.2112,-1805 678.2112,4 -4,4"/>
<g id="clust1" class="cluster">
<title>cluster_Global</title>
<path fill="none" stroke="#c0c0c0" d="M123.1825,-152C123.1825,-152 654.2112,-152 654.2112,-152 660.2112,-152 666.2112,-158 666.2112,-164 666.2112,-164 666.2112,-1781 666.2112,-1781 666.2112,-1787 660.2112,-1793 654.2112,-1793 654.2112,-1793 123.1825,-1793 123.1825,-1793 117.1825,-1793 111.1825,-1787 111.1825,-1781 111.1825,-1781 111.1825,-164 111.1825,-164 111.1825,-158 117.1825,-152 123.1825,-152"/>
<text text-anchor="middle" x="388.6969" y="-1780.2" font-family="Times,serif" font-size="11.00" fill="#c0c0c0">Global</text>
</g>
<g id="clust2" class="cluster">
<title>cluster_\Cloudonix</title>
<path fill="none" stroke="#c0c0c0" d="M131.1825,-160C131.1825,-160 646.2112,-160 646.2112,-160 652.2112,-160 658.2112,-166 658.2112,-172 658.2112,-172 658.2112,-1754 658.2112,-1754 658.2112,-1760 652.2112,-1766 646.2112,-1766 646.2112,-1766 131.1825,-1766 131.1825,-1766 125.1825,-1766 119.1825,-1760 119.1825,-1754 119.1825,-1754 119.1825,-172 119.1825,-172 119.1825,-166 125.1825,-160 131.1825,-160"/>
<text text-anchor="middle" x="388.6969" y="-1753.2" font-family="Times,serif" font-size="11.00" fill="#c0c0c0">Cloudonix</text>
</g>
<g id="clust3" class="cluster">
<title>cluster_\Cloudonix\Helpers</title>
<path fill="none" stroke="#c0c0c0" d="M478.3865,-1290C478.3865,-1290 592.0037,-1290 592.0037,-1290 598.0037,-1290 604.0037,-1296 604.0037,-1302 604.0037,-1302 604.0037,-1727 604.0037,-1727 604.0037,-1733 598.0037,-1739 592.0037,-1739 592.0037,-1739 478.3865,-1739 478.3865,-1739 472.3865,-1739 466.3865,-1733 466.3865,-1727 466.3865,-1727 466.3865,-1302 466.3865,-1302 466.3865,-1296 472.3865,-1290 478.3865,-1290"/>
<text text-anchor="middle" x="535.1951" y="-1726.2" font-family="Times,serif" font-size="11.00" fill="#c0c0c0">Helpers</text>
</g>
<g id="clust4" class="cluster">
<title>cluster_\Cloudonix\Datamodels</title>
<path fill="none" stroke="#c0c0c0" d="M491.5887,-941C491.5887,-941 578.8016,-941 578.8016,-941 584.8016,-941 590.8016,-947 590.8016,-953 590.8016,-953 590.8016,-1270 590.8016,-1270 590.8016,-1276 584.8016,-1282 578.8016,-1282 578.8016,-1282 491.5887,-1282 491.5887,-1282 485.5887,-1282 479.5887,-1276 479.5887,-1270 479.5887,-1270 479.5887,-953 479.5887,-953 479.5887,-947 485.5887,-941 491.5887,-941"/>
<text text-anchor="middle" x="535.1951" y="-1269.2" font-family="Times,serif" font-size="11.00" fill="#c0c0c0">Datamodels</text>
</g>
<g id="clust5" class="cluster">
<title>cluster_\Cloudonix\Exceptions</title>
<path fill="none" stroke="#c0c0c0" d="M432.179,-268C432.179,-268 638.2112,-268 638.2112,-268 644.2112,-268 650.2112,-274 650.2112,-280 650.2112,-280 650.2112,-921 650.2112,-921 650.2112,-927 644.2112,-933 638.2112,-933 638.2112,-933 432.179,-933 432.179,-933 426.179,-933 420.179,-927 420.179,-921 420.179,-921 420.179,-280 420.179,-280 420.179,-274 426.179,-268 432.179,-268"/>
<text text-anchor="middle" x="535.1951" y="-920.2" font-family="Times,serif" font-size="11.00" fill="#c0c0c0">Exceptions</text>
</g>
<!-- \\Cloudonix\\Helpers\\TenantSetter -->
<g id="node1" class="node">
<title>\\Cloudonix\\Helpers\\TenantSetter</title>
<polygon fill="none" stroke="#000000" points="582.9082,-1712 487.482,-1712 487.482,-1676 582.9082,-1676 582.9082,-1712"/>
<text text-anchor="middle" x="535.1951" y="-1690.7" font-family="Courier,monospace" font-size="11.00" fill="#000000">TenantSetter</text>
</g>
<!-- \\Cloudonix\\Helpers\\TrunkSetter -->
<g id="node2" class="node">
<title>\\Cloudonix\\Helpers\\TrunkSetter</title>
<polygon fill="none" stroke="#000000" points="579.3078,-1658 491.0824,-1658 491.0824,-1622 579.3078,-1622 579.3078,-1658"/>
<text text-anchor="middle" x="535.1951" y="-1636.7" font-family="Courier,monospace" font-size="11.00" fill="#000000">TrunkSetter</text>
</g>
<!-- \\Cloudonix\\Helpers\\TenantGetter -->
<g id="node3" class="node">
<title>\\Cloudonix\\Helpers\\TenantGetter</title>
<polygon fill="none" stroke="#000000" points="582.9082,-1604 487.482,-1604 487.482,-1568 582.9082,-1568 582.9082,-1604"/>
<text text-anchor="middle" x="535.1951" y="-1582.7" font-family="Courier,monospace" font-size="11.00" fill="#000000">TenantGetter</text>
</g>
<!-- \\Cloudonix\\Helpers\\TrunkGetter -->
<g id="node4" class="node">
<title>\\Cloudonix\\Helpers\\TrunkGetter</title>
<polygon fill="none" stroke="#000000" points="579.3078,-1550 491.0824,-1550 491.0824,-1514 579.3078,-1514 579.3078,-1550"/>
<text text-anchor="middle" x="535.1951" y="-1528.7" font-family="Courier,monospace" font-size="11.00" fill="#000000">TrunkGetter</text>
</g>
<!-- \\Cloudonix\\Helpers\\SubscriberGetter -->
<g id="node5" class="node">
<title>\\Cloudonix\\Helpers\\SubscriberGetter</title>
<polygon fill="none" stroke="#000000" points="595.8129,-1496 474.5773,-1496 474.5773,-1460 595.8129,-1460 595.8129,-1496"/>
<text text-anchor="middle" x="535.1951" y="-1474.7" font-family="Courier,monospace" font-size="11.00" fill="#000000">SubscriberGetter</text>
</g>
<!-- \\Cloudonix\\Helpers\\SubscriberSetter -->
<g id="node6" class="node">
<title>\\Cloudonix\\Helpers\\SubscriberSetter</title>
<polygon fill="none" stroke="#000000" points="595.8129,-1442 474.5773,-1442 474.5773,-1406 595.8129,-1406 595.8129,-1442"/>
<text text-anchor="middle" x="535.1951" y="-1420.7" font-family="Courier,monospace" font-size="11.00" fill="#000000">SubscriberSetter</text>
</g>
<!-- \\Cloudonix\\Helpers\\DnidGetter -->
<g id="node7" class="node">
<title>\\Cloudonix\\Helpers\\DnidGetter</title>
<polygon fill="none" stroke="#000000" points="576.2059,-1388 494.1844,-1388 494.1844,-1352 576.2059,-1352 576.2059,-1388"/>
<text text-anchor="middle" x="535.1951" y="-1366.7" font-family="Courier,monospace" font-size="11.00" fill="#000000">DnidGetter</text>
</g>
<!-- \\Cloudonix\\Helpers\\DnidSetter -->
<g id="node8" class="node">
<title>\\Cloudonix\\Helpers\\DnidSetter</title>
<polygon fill="none" stroke="#000000" points="576.2059,-1334 494.1844,-1334 494.1844,-1298 576.2059,-1298 576.2059,-1334"/>
<text text-anchor="middle" x="535.1951" y="-1312.7" font-family="Courier,monospace" font-size="11.00" fill="#000000">DnidSetter</text>
</g>
<!-- \\Cloudonix\\Datamodels\\Subscribers -->
<g id="node9" class="node">
<title>\\Cloudonix\\Datamodels\\Subscribers</title>
<polygon fill="none" stroke="#000000" points="579.3078,-1147 491.0824,-1147 491.0824,-1111 579.3078,-1111 579.3078,-1147"/>
<text text-anchor="middle" x="535.1951" y="-1125.7" font-family="Courier,monospace" font-size="11.00" fill="#000000">Subscribers</text>
</g>
<!-- \\Cloudonix\\LazyDatamodel -->
<g id="node29" class="node">
<title>\\Cloudonix\\LazyDatamodel</title>
<polygon fill="none" stroke="#000000" points="228.9036,-1174 127.2754,-1174 127.2754,-1138 228.9036,-1138 228.9036,-1174"/>
<text text-anchor="middle" x="178.0895" y="-1152.7" font-family="Courier,monospace" font-size="11.00" fill="#000000">LazyDatamodel</text>
</g>
<!-- \\Cloudonix\\Datamodels\\Subscribers&#45;&gt;\\Cloudonix\\LazyDatamodel -->
<g id="edge1" class="edge">
<title>\\Cloudonix\\Datamodels\\Subscribers&#45;&gt;\\Cloudonix\\LazyDatamodel</title>
<path fill="none" stroke="#000000" stroke-dasharray="1,5" d="M491.0488,-1132.3378C427.73,-1137.1252 310.8855,-1145.9596 239.2698,-1151.3743"/>
<polygon fill="none" stroke="#000000" points="238.7512,-1147.9034 229.0435,-1152.1475 239.279,-1154.8835 238.7512,-1147.9034"/>
</g>
<!-- \\Cloudonix\\Datamodels\\Trunks -->
<g id="node10" class="node">
<title>\\Cloudonix\\Datamodels\\Trunks</title>
<polygon fill="none" stroke="#000000" points="562.8029,-1093 507.5873,-1093 507.5873,-1057 562.8029,-1057 562.8029,-1093"/>
<text text-anchor="middle" x="535.1951" y="-1071.7" font-family="Courier,monospace" font-size="11.00" fill="#000000">Trunks</text>
</g>
<!-- \\Cloudonix\\Datamodels\\Trunks&#45;&gt;\\Cloudonix\\LazyDatamodel -->
<g id="edge2" class="edge">
<title>\\Cloudonix\\Datamodels\\Trunks&#45;&gt;\\Cloudonix\\LazyDatamodel</title>
<path fill="none" stroke="#000000" stroke-dasharray="1,5" d="M507.4708,-1081.2885C450.2269,-1094.2728 317.7739,-1124.3163 239.3817,-1142.0975"/>
<polygon fill="none" stroke="#000000" points="238.1394,-1138.7903 229.1613,-1144.4157 239.6879,-1145.6169 238.1394,-1138.7903"/>
</g>
<!-- \\Cloudonix\\Datamodels\\Applications -->
<g id="node11" class="node">
<title>\\Cloudonix\\Datamodels\\Applications</title>
<polygon fill="none" stroke="#000000" points="582.9082,-1039 487.482,-1039 487.482,-1003 582.9082,-1003 582.9082,-1039"/>
<text text-anchor="middle" x="535.1951" y="-1017.7" font-family="Courier,monospace" font-size="11.00" fill="#000000">Applications</text>
</g>
<!-- \\Cloudonix\\Datamodels\\Datamodel -->
<g id="node30" class="node">
<title>\\Cloudonix\\Datamodels\\Datamodel</title>
<ellipse fill="none" stroke="#000000" cx="178.0895" cy="-126" rx="135.7171" ry="18"/>
<text text-anchor="middle" x="178.0895" y="-121.8" font-family="Times,serif" font-size="14.00" fill="#c0c0c0">\Cloudonix\Datamodels\Datamodel</text>
</g>
<!-- \\Cloudonix\\Datamodels\\Applications&#45;&gt;\\Cloudonix\\Datamodels\\Datamodel -->
<g id="edge3" class="edge">
<title>\\Cloudonix\\Datamodels\\Applications&#45;&gt;\\Cloudonix\\Datamodels\\Datamodel</title>
<path fill="none" stroke="#000000" stroke-dasharray="1,5" d="M487.3168,-1022.1995C463.5613,-1020.0859 436.523,-1013.0836 420.179,-994 298.6915,-852.1488 482.1212,-293.9114 356.179,-156 346.6514,-145.5669 334.9599,-137.8772 322.1615,-132.2885"/>
<polygon fill="none" stroke="#000000" points="323.25,-128.9562 312.6618,-128.5811 320.705,-135.4772 323.25,-128.9562"/>
</g>
<!-- \\Cloudonix\\Datamodels\\Dnids -->
<g id="node12" class="node">
<title>\\Cloudonix\\Datamodels\\Dnids</title>
<polygon fill="none" stroke="#000000" points="562.1951,-1255 508.1951,-1255 508.1951,-1219 562.1951,-1219 562.1951,-1255"/>
<text text-anchor="middle" x="535.1951" y="-1233.7" font-family="Courier,monospace" font-size="11.00" fill="#000000">Dnids</text>
</g>
<!-- \\Cloudonix\\Datamodels\\Dnids&#45;&gt;\\Cloudonix\\LazyDatamodel -->
<g id="edge4" class="edge">
<title>\\Cloudonix\\Datamodels\\Dnids&#45;&gt;\\Cloudonix\\LazyDatamodel</title>
<path fill="none" stroke="#000000" stroke-dasharray="1,5" d="M508.061,-1230.8454C451.0103,-1217.9049 317.4276,-1187.6052 238.8359,-1169.7787"/>
<polygon fill="none" stroke="#000000" points="239.5904,-1166.361 229.0639,-1167.5622 238.0419,-1173.1876 239.5904,-1166.361"/>
</g>
<!-- \\Cloudonix\\Datamodels\\Tenants -->
<g id="node13" class="node">
<title>\\Cloudonix\\Datamodels\\Tenants</title>
<polygon fill="none" stroke="#000000" points="566.403,-1201 503.9872,-1201 503.9872,-1165 566.403,-1165 566.403,-1201"/>
<text text-anchor="middle" x="535.1951" y="-1179.7" font-family="Courier,monospace" font-size="11.00" fill="#000000">Tenants</text>
</g>
<!-- \\Cloudonix\\Datamodels\\Tenants&#45;&gt;\\Cloudonix\\LazyDatamodel -->
<g id="edge5" class="edge">
<title>\\Cloudonix\\Datamodels\\Tenants&#45;&gt;\\Cloudonix\\LazyDatamodel</title>
<path fill="none" stroke="#000000" stroke-dasharray="1,5" d="M503.8173,-1180.6276C444.6909,-1176.1572 315.8397,-1166.415 239.1042,-1160.6132"/>
<polygon fill="none" stroke="#000000" points="239.3301,-1157.1204 229.0946,-1159.8564 238.8023,-1164.1004 239.3301,-1157.1204"/>
</g>
<!-- \\Cloudonix\\Datamodels\\Domains -->
<g id="node14" class="node">
<title>\\Cloudonix\\Datamodels\\Domains</title>
<polygon fill="none" stroke="#000000" points="566.403,-985 503.9872,-985 503.9872,-949 566.403,-949 566.403,-985"/>
<text text-anchor="middle" x="535.1951" y="-963.7" font-family="Courier,monospace" font-size="11.00" fill="#000000">Domains</text>
</g>
<!-- \\Cloudonix\\Datamodels\\Domains&#45;&gt;\\Cloudonix\\Datamodels\\Datamodel -->
<g id="edge6" class="edge">
<title>\\Cloudonix\\Datamodels\\Domains&#45;&gt;\\Cloudonix\\Datamodels\\Datamodel</title>
<path fill="none" stroke="#000000" stroke-dasharray="1,5" d="M503.9228,-968.0699C477.3618,-967.1297 440.4214,-961.0959 420.179,-937 308.1691,-803.6674 473.9619,-284.2614 356.179,-156 346.6225,-145.5933 334.9123,-137.9208 322.1027,-132.3423"/>
<polygon fill="none" stroke="#000000" points="323.1846,-129.0076 312.5961,-128.6412 320.645,-135.5307 323.1846,-129.0076"/>
</g>
<!-- \\Cloudonix\\Exceptions\\MissingDomainIdException -->
<g id="node15" class="node">
<title>\\Cloudonix\\Exceptions\\MissingDomainIdException</title>
<polygon fill="none" stroke="#000000" points="622.6214,-906 447.7688,-906 447.7688,-870 622.6214,-870 622.6214,-906"/>
<text text-anchor="middle" x="535.1951" y="-884.7" font-family="Courier,monospace" font-size="11.00" fill="#000000">MissingDomainIdException</text>
</g>
<!-- \\Exception -->
<g id="node31" class="node">
<title>\\Exception</title>
<ellipse fill="none" stroke="#000000" cx="178.0895" cy="-72" rx="48.3341" ry="18"/>
<text text-anchor="middle" x="178.0895" y="-67.8" font-family="Times,serif" font-size="14.00" fill="#c0c0c0">\Exception</text>
</g>
<!-- \\Cloudonix\\Exceptions\\MissingDomainIdException&#45;&gt;\\Exception -->
<g id="edge7" class="edge">
<title>\\Cloudonix\\Exceptions\\MissingDomainIdException&#45;&gt;\\Exception</title>
<path fill="none" stroke="#000000" d="M447.7393,-880.1157C437.235,-875.7682 427.6165,-869.6179 420.179,-861 309.1547,-732.3545 472.2658,-223.0963 356.179,-99 325.423,-66.122 272.9363,-61.6843 232.8876,-64.0969"/>
<polygon fill="none" stroke="#000000" points="232.4403,-60.6207 222.7343,-64.8684 232.9708,-67.6006 232.4403,-60.6207"/>
</g>
<!-- \\Cloudonix\\Exceptions\\MissingDnidIdException -->
<g id="node16" class="node">
<title>\\Cloudonix\\Exceptions\\MissingDnidIdException</title>
<polygon fill="none" stroke="#000000" points="615.9189,-852 454.4713,-852 454.4713,-816 615.9189,-816 615.9189,-852"/>
<text text-anchor="middle" x="535.1951" y="-830.7" font-family="Courier,monospace" font-size="11.00" fill="#000000">MissingDnidIdException</text>
</g>
<!-- \\Cloudonix\\Exceptions\\MissingDnidIdException&#45;&gt;\\Exception -->
<g id="edge8" class="edge">
<title>\\Cloudonix\\Exceptions\\MissingDnidIdException&#45;&gt;\\Exception</title>
<path fill="none" stroke="#000000" d="M454.4255,-828.5452C441.3634,-824.1688 429.1906,-817.375 420.179,-807 316.5858,-687.7335 464.4652,-214.0224 356.179,-99 325.3186,-66.2199 272.845,-61.77 232.8276,-64.1532"/>
<polygon fill="none" stroke="#000000" points="232.392,-60.676 222.6829,-64.9167 232.9174,-67.6562 232.392,-60.676"/>
</g>
<!-- \\Cloudonix\\Exceptions\\MissingApplicationIdException -->
<g id="node17" class="node">
<title>\\Cloudonix\\Exceptions\\MissingApplicationIdException</title>
<polygon fill="none" stroke="#000000" points="639.1267,-798 431.2635,-798 431.2635,-762 639.1267,-762 639.1267,-798"/>
<text text-anchor="middle" x="535.1951" y="-776.7" font-family="Courier,monospace" font-size="11.00" fill="#000000">MissingApplicationIdException</text>
</g>
<!-- \\Cloudonix\\Exceptions\\MissingApplicationIdException&#45;&gt;\\Exception -->
<g id="edge9" class="edge">
<title>\\Cloudonix\\Exceptions\\MissingApplicationIdException&#45;&gt;\\Exception</title>
<path fill="none" stroke="#000000" d="M431.0094,-762.7947C427.0656,-759.9516 423.4208,-756.7045 420.179,-753 324.0131,-643.1084 456.6684,-204.9525 356.179,-99 325.2966,-66.4386 273.074,-61.8989 233.1417,-64.1966"/>
<polygon fill="none" stroke="#000000" points="232.7327,-60.7171 223.015,-64.9381 233.244,-67.6984 232.7327,-60.7171"/>
</g>
<!-- \\Cloudonix\\Exceptions\\MissingSubscriberIdException -->
<g id="node18" class="node">
<title>\\Cloudonix\\Exceptions\\MissingSubscriberIdException</title>
<polygon fill="none" stroke="#000000" points="635.5253,-744 434.865,-744 434.865,-708 635.5253,-708 635.5253,-744"/>
<text text-anchor="middle" x="535.1951" y="-722.7" font-family="Courier,monospace" font-size="11.00" fill="#000000">MissingSubscriberIdException</text>
</g>
<!-- \\Cloudonix\\Exceptions\\MissingSubscriberIdException&#45;&gt;\\Exception -->
<g id="edge10" class="edge">
<title>\\Cloudonix\\Exceptions\\MissingSubscriberIdException&#45;&gt;\\Exception</title>
<path fill="none" stroke="#000000" d="M434.8399,-711.3005C429.4201,-707.9039 424.455,-703.8435 420.179,-699 242.6926,-497.9557 541.5738,-292.7755 356.179,-99 325.155,-66.5735 272.9496,-62.0175 233.0596,-64.2747"/>
<polygon fill="none" stroke="#000000" points="232.6665,-60.7939 222.9446,-65.0052 233.1707,-67.7757 232.6665,-60.7939"/>
</g>
<!-- \\Cloudonix\\Exceptions\\MissingTrunkIdException -->
<g id="node19" class="node">
<title>\\Cloudonix\\Exceptions\\MissingTrunkIdException</title>
<polygon fill="none" stroke="#000000" points="619.0199,-690 451.3703,-690 451.3703,-654 619.0199,-654 619.0199,-690"/>
<text text-anchor="middle" x="535.1951" y="-668.7" font-family="Courier,monospace" font-size="11.00" fill="#000000">MissingTrunkIdException</text>
</g>
<!-- \\Cloudonix\\Exceptions\\MissingTrunkIdException&#45;&gt;\\Exception -->
<g id="edge11" class="edge">
<title>\\Cloudonix\\Exceptions\\MissingTrunkIdException&#45;&gt;\\Exception</title>
<path fill="none" stroke="#000000" d="M451.1562,-665.1196C439.3984,-660.7562 428.5082,-654.3363 420.179,-645 257.526,-462.6811 526.0025,-274.6592 356.179,-99 324.9865,-66.7356 272.8015,-62.1599 232.962,-64.3686"/>
<polygon fill="none" stroke="#000000" points="232.5877,-60.8863 222.8607,-65.0858 233.0835,-67.8687 232.5877,-60.8863"/>
</g>
<!-- \\Cloudonix\\Exceptions\\MissingAdditionalDataException -->
<g id="node20" class="node">
<title>\\Cloudonix\\Exceptions\\MissingAdditionalDataException</title>
<polygon fill="none" stroke="#000000" points="642.2273,-636 428.1629,-636 428.1629,-600 642.2273,-600 642.2273,-636"/>
<text text-anchor="middle" x="535.1951" y="-614.7" font-family="Courier,monospace" font-size="11.00" fill="#000000">MissingAdditionalDataException</text>
</g>
<!-- \\Cloudonix\\Exceptions\\MissingAdditionalDataException&#45;&gt;\\Exception -->
<g id="edge12" class="edge">
<title>\\Cloudonix\\Exceptions\\MissingAdditionalDataException&#45;&gt;\\Exception</title>
<path fill="none" stroke="#000000" d="M430.1641,-599.956C426.5589,-597.3201 423.2042,-594.3481 420.179,-591 272.3432,-427.3884 510.4481,-256.5603 356.179,-99 324.8833,-67.0366 272.9565,-62.3639 233.2268,-64.463"/>
<polygon fill="none" stroke="#000000" points="232.8886,-60.9779 223.1505,-65.1516 233.3659,-67.9616 232.8886,-60.9779"/>
</g>
<!-- \\Cloudonix\\Exceptions\\MissingTenantNameException -->
<g id="node21" class="node">
<title>\\Cloudonix\\Exceptions\\MissingTenantNameException</title>
<polygon fill="none" stroke="#000000" points="628.8234,-582 441.5668,-582 441.5668,-546 628.8234,-546 628.8234,-582"/>
<text text-anchor="middle" x="535.1951" y="-560.7" font-family="Courier,monospace" font-size="11.00" fill="#000000">MissingTenantNameException</text>
</g>
<!-- \\Cloudonix\\Exceptions\\MissingTenantNameException&#45;&gt;\\Exception -->
<g id="edge13" class="edge">
<title>\\Cloudonix\\Exceptions\\MissingTenantNameException&#45;&gt;\\Exception</title>
<path fill="none" stroke="#000000" d="M441.4852,-552.6603C433.5167,-548.6914 426.2126,-543.5728 420.179,-537 287.1382,-392.0712 494.9167,-238.4849 356.179,-99 324.6328,-67.2839 272.7355,-62.5821 233.0805,-64.6074"/>
<polygon fill="none" stroke="#000000" points="232.7704,-61.1202 223.0246,-65.2758 233.2347,-68.1048 232.7704,-61.1202"/>
</g>
<!-- \\Cloudonix\\Exceptions\\MissingTenantIdException -->
<g id="node22" class="node">
<title>\\Cloudonix\\Exceptions\\MissingTenantIdException</title>
<polygon fill="none" stroke="#000000" points="622.6214,-528 447.7688,-528 447.7688,-492 622.6214,-492 622.6214,-528"/>
<text text-anchor="middle" x="535.1951" y="-506.7" font-family="Courier,monospace" font-size="11.00" fill="#000000">MissingTenantIdException</text>
</g>
<!-- \\Cloudonix\\Exceptions\\MissingTenantIdException&#45;&gt;\\Exception -->
<g id="edge14" class="edge">
<title>\\Cloudonix\\Exceptions\\MissingTenantIdException&#45;&gt;\\Exception</title>
<path fill="none" stroke="#000000" d="M447.8007,-501.3139C437.4213,-497.0672 427.8206,-491.1586 420.179,-483 301.9018,-356.7197 479.4182,-220.4426 356.179,-99 324.4188,-67.7028 272.7895,-62.8934 233.2777,-64.7747"/>
<polygon fill="none" stroke="#000000" points="233.0164,-61.2841 223.2559,-65.405 233.4559,-68.2703 233.0164,-61.2841"/>
</g>
<!-- \\Cloudonix\\Exceptions\\MissingApikeyIdException -->
<g id="node23" class="node">
<title>\\Cloudonix\\Exceptions\\MissingApikeyIdException</title>
<polygon fill="none" stroke="#000000" points="622.6214,-474 447.7688,-474 447.7688,-438 622.6214,-438 622.6214,-474"/>
<text text-anchor="middle" x="535.1951" y="-452.7" font-family="Courier,monospace" font-size="11.00" fill="#000000">MissingApikeyIdException</text>
</g>
<!-- \\Cloudonix\\Exceptions\\MissingApikeyIdException&#45;&gt;\\Exception -->
<g id="edge15" class="edge">
<title>\\Cloudonix\\Exceptions\\MissingApikeyIdException&#45;&gt;\\Exception</title>
<path fill="none" stroke="#000000" d="M447.7134,-447.0086C437.4128,-442.7997 427.8566,-436.9831 420.179,-429 316.6183,-321.3181 463.9687,-202.4484 356.179,-99 324.1801,-68.2899 272.9763,-63.3201 233.6683,-64.9957"/>
<polygon fill="none" stroke="#000000" points="233.2175,-61.5159 223.4376,-65.5904 233.6239,-68.5041 233.2175,-61.5159"/>
</g>
<!-- \\Cloudonix\\Exceptions\\DatamodelBuilderException -->
<g id="node24" class="node">
<title>\\Cloudonix\\Exceptions\\DatamodelBuilderException</title>
<polygon fill="none" stroke="#000000" points="625.722,-420 444.6683,-420 444.6683,-384 625.722,-384 625.722,-420"/>
<text text-anchor="middle" x="535.1951" y="-398.7" font-family="Courier,monospace" font-size="11.00" fill="#000000">DatamodelBuilderException</text>
</g>
<!-- \\Cloudonix\\Exceptions\\DatamodelBuilderException&#45;&gt;\\Exception -->
<g id="edge16" class="edge">
<title>\\Cloudonix\\Exceptions\\DatamodelBuilderException&#45;&gt;\\Exception</title>
<path fill="none" stroke="#000000" d="M444.5618,-391.2977C435.5198,-387.2772 427.1312,-381.9711 420.179,-375 331.2602,-285.8392 448.5969,-184.5285 356.179,-99 323.8387,-69.0706 273.1452,-63.9088 234.1005,-65.3168"/>
<polygon fill="none" stroke="#000000" points="233.741,-61.8306 223.9336,-65.8387 234.0999,-68.8214 233.741,-61.8306"/>
</g>
<!-- \\Cloudonix\\Exceptions\\WorkflowViolation -->
<g id="node25" class="node">
<title>\\Cloudonix\\Exceptions\\WorkflowViolation</title>
<polygon fill="none" stroke="#000000" points="599.4136,-366 470.9767,-366 470.9767,-330 599.4136,-330 599.4136,-366"/>
<text text-anchor="middle" x="535.1951" y="-344.7" font-family="Courier,monospace" font-size="11.00" fill="#000000">WorkflowViolation</text>
</g>
<!-- \\Cloudonix\\Exceptions\\WorkflowViolation&#45;&gt;\\Exception -->
<g id="edge17" class="edge">
<title>\\Cloudonix\\Exceptions\\WorkflowViolation&#45;&gt;\\Exception</title>
<path fill="none" stroke="#000000" d="M470.9,-344.9663C452.5521,-341.1493 433.8522,-334.0047 420.179,-321 345.7738,-250.2323 433.3584,-166.7313 356.179,-99 323.2754,-70.1244 273.1034,-64.7555 234.3882,-65.8192"/>
<polygon fill="none" stroke="#000000" points="234.1471,-62.3262 224.3042,-66.2464 234.4434,-69.32 234.1471,-62.3262"/>
</g>
<!-- \\Cloudonix\\Exceptions\\WorkflowViolationBadResponse -->
<g id="node26" class="node">
<title>\\Cloudonix\\Exceptions\\WorkflowViolationBadResponse</title>
<polygon fill="none" stroke="#000000" points="635.5253,-312 434.865,-312 434.865,-276 635.5253,-276 635.5253,-312"/>
<text text-anchor="middle" x="535.1951" y="-290.7" font-family="Courier,monospace" font-size="11.00" fill="#000000">WorkflowViolationBadResponse</text>
</g>
<!-- \\GuzzleHttp\\Exception\\BadResponseException -->
<g id="node32" class="node">
<title>\\GuzzleHttp\\Exception\\BadResponseException</title>
<ellipse fill="none" stroke="#000000" cx="178.0895" cy="-18" rx="178.179" ry="18"/>
<text text-anchor="middle" x="178.0895" y="-13.8" font-family="Times,serif" font-size="14.00" fill="#c0c0c0">\GuzzleHttp\Exception\BadResponseException</text>
</g>
<!-- \\Cloudonix\\Exceptions\\WorkflowViolationBadResponse&#45;&gt;\\GuzzleHttp\\Exception\\BadResponseException -->
<g id="edge18" class="edge">
<title>\\Cloudonix\\Exceptions\\WorkflowViolationBadResponse&#45;&gt;\\GuzzleHttp\\Exception\\BadResponseException</title>
<path fill="none" stroke="#000000" d="M434.7861,-282.3319C429.5255,-279.4676 424.5978,-276.055 420.179,-272 342.9477,-201.127 434.7613,-114.372 356.179,-45 350.6185,-40.0912 344.5596,-35.8603 338.1424,-32.2237"/>
<polygon fill="none" stroke="#000000" points="339.6775,-29.0776 329.1827,-27.6253 336.4813,-35.3053 339.6775,-29.0776"/>
</g>
<!-- \\Cloudonix\\Client -->
<g id="node27" class="node">
<title>\\Cloudonix\\Client</title>
<polygon fill="none" stroke="#000000" points="562.8029,-258 507.5873,-258 507.5873,-222 562.8029,-222 562.8029,-258"/>
<text text-anchor="middle" x="535.1951" y="-236.7" font-family="Courier,monospace" font-size="11.00" fill="#000000">Client</text>
</g>
<!-- \\Cloudonix\\Datamodel -->
<g id="node28" class="node">
<title>\\Cloudonix\\Datamodel</title>
<polygon fill="none" stroke="#000000" points="573.1059,-204 497.2843,-204 497.2843,-168 573.1059,-168 573.1059,-204"/>
<text text-anchor="middle" x="535.1951" y="-182.7" font-family="Courier,monospace" font-size="11.00" fill="#000000">Datamodel</text>
</g>
</g>
</svg>
