<?xml version="1.0" encoding="UTF-8" standalone="no"?>
<!DOCTYPE svg PUBLIC "-//W3C//DTD SVG 1.1//EN"
 "http://www.w3.org/Graphics/SVG/1.1/DTD/svg11.dtd">
<!-- Generated by graphviz version 2.40.1 (20161225.0304)
 -->
<!-- Title: G Pages: 1 -->
<svg width="266pt" height="238pt"
 viewBox="0.00 0.00 265.62 238.00" xmlns="http://www.w3.org/2000/svg" xmlns:xlink="http://www.w3.org/1999/xlink">
<g id="graph0" class="graph" transform="scale(1 1) rotate(0) translate(4 234)">
<title>G</title>
<polygon fill="#ffffff" stroke="transparent" points="-4,4 -4,-234 261.6172,-234 261.6172,4 -4,4"/>
<g id="clust1" class="cluster">
<title>cluster_Global</title>
<path fill="none" stroke="#c0c0c0" d="M20,-8C20,-8 237.6172,-8 237.6172,-8 243.6172,-8 249.6172,-14 249.6172,-20 249.6172,-20 249.6172,-210 249.6172,-210 249.6172,-216 243.6172,-222 237.6172,-222 237.6172,-222 20,-222 20,-222 14,-222 8,-216 8,-210 8,-210 8,-20 8,-20 8,-14 14,-8 20,-8"/>
<text text-anchor="middle" x="128.8086" y="-209.2" font-family="Times,serif" font-size="11.00" fill="#c0c0c0">Global</text>
</g>
<g id="clust2" class="cluster">
<title>cluster_\Cloudonix</title>
<path fill="none" stroke="#c0c0c0" d="M28,-16C28,-16 229.6172,-16 229.6172,-16 235.6172,-16 241.6172,-22 241.6172,-28 241.6172,-28 241.6172,-183 241.6172,-183 241.6172,-189 235.6172,-195 229.6172,-195 229.6172,-195 28,-195 28,-195 22,-195 16,-189 16,-183 16,-183 16,-28 16,-28 16,-22 22,-16 28,-16"/>
<text text-anchor="middle" x="128.8086" y="-182.2" font-family="Times,serif" font-size="11.00" fill="#c0c0c0">Cloudonix</text>
</g>
<!-- \\Cloudonix\\Tenants -->
<g id="node1" class="node">
<title>\\Cloudonix\\Tenants</title>
<polygon fill="none" stroke="#000000" points="233.7213,-168 171.3056,-168 171.3056,-132 233.7213,-132 233.7213,-168"/>
<text text-anchor="middle" x="202.5134" y="-146.7" font-family="Courier,monospace" font-size="11.00" fill="#000000">Tenants</text>
</g>
<!-- \\Cloudonix\\Datamodel -->
<g id="node4" class="node">
<title>\\Cloudonix\\Datamodel</title>
<polygon fill="none" stroke="#000000" points="99.6156,-141 23.794,-141 23.794,-105 99.6156,-105 99.6156,-141"/>
<text text-anchor="middle" x="61.7048" y="-119.7" font-family="Courier,monospace" font-size="11.00" fill="#000000">Datamodel</text>
</g>
<!-- \\Cloudonix\\Tenants&#45;&gt;\\Cloudonix\\Datamodel -->
<g id="edge1" class="edge">
<title>\\Cloudonix\\Tenants&#45;&gt;\\Cloudonix\\Datamodel</title>
<path fill="none" stroke="#000000" stroke-dasharray="1,5" d="M171.2634,-144.0078C153.173,-140.539 130.0255,-136.1005 109.672,-132.1977"/>
<polygon fill="none" stroke="#000000" points="110.1131,-128.7186 99.6329,-130.2727 108.7948,-135.5933 110.1131,-128.7186"/>
</g>
<!-- \\Cloudonix\\Domains -->
<g id="node2" class="node">
<title>\\Cloudonix\\Domains</title>
<polygon fill="none" stroke="#000000" points="233.7213,-114 171.3056,-114 171.3056,-78 233.7213,-78 233.7213,-114"/>
<text text-anchor="middle" x="202.5134" y="-92.7" font-family="Courier,monospace" font-size="11.00" fill="#000000">Domains</text>
</g>
<!-- \\Cloudonix\\Domains&#45;&gt;\\Cloudonix\\Datamodel -->
<g id="edge2" class="edge">
<title>\\Cloudonix\\Domains&#45;&gt;\\Cloudonix\\Datamodel</title>
<path fill="none" stroke="#000000" stroke-dasharray="1,5" d="M171.2634,-101.9922C153.173,-105.461 130.0255,-109.8995 109.672,-113.8023"/>
<polygon fill="none" stroke="#000000" points="108.7948,-110.4067 99.6329,-115.7273 110.1131,-117.2814 108.7948,-110.4067"/>
</g>
<!-- \\Cloudonix\\Client -->
<g id="node3" class="node">
<title>\\Cloudonix\\Client</title>
<polygon fill="none" stroke="#000000" points="230.1213,-60 174.9056,-60 174.9056,-24 230.1213,-24 230.1213,-60"/>
<text text-anchor="middle" x="202.5134" y="-38.7" font-family="Courier,monospace" font-size="11.00" fill="#000000">Client</text>
</g>
</g>
</svg>
