<?xml version="1.0" encoding="UTF-8" standalone="no"?>
<!DOCTYPE svg PUBLIC "-//W3C//DTD SVG 1.1//EN"
 "http://www.w3.org/Graphics/SVG/1.1/DTD/svg11.dtd">
<!-- Generated by graphviz version 2.40.1 (20161225.0304)
 -->
<!-- Title: G Pages: 1 -->
<svg width="299pt" height="292pt"
 viewBox="0.00 0.00 298.62 292.00" xmlns="http://www.w3.org/2000/svg" xmlns:xlink="http://www.w3.org/1999/xlink">
<g id="graph0" class="graph" transform="scale(1 1) rotate(0) translate(4 288)">
<title>G</title>
<polygon fill="#ffffff" stroke="transparent" points="-4,4 -4,-288 294.6226,-288 294.6226,4 -4,4"/>
<g id="clust1" class="cluster">
<title>cluster_Global</title>
<path fill="none" stroke="#c0c0c0" d="M20,-8C20,-8 270.6226,-8 270.6226,-8 276.6226,-8 282.6226,-14 282.6226,-20 282.6226,-20 282.6226,-264 282.6226,-264 282.6226,-270 276.6226,-276 270.6226,-276 270.6226,-276 20,-276 20,-276 14,-276 8,-270 8,-264 8,-264 8,-20 8,-20 8,-14 14,-8 20,-8"/>
<text text-anchor="middle" x="145.3113" y="-263.2" font-family="Times,serif" font-size="11.00" fill="#c0c0c0">Global</text>
</g>
<g id="clust2" class="cluster">
<title>cluster_\Cloudonix</title>
<path fill="none" stroke="#c0c0c0" d="M28,-16C28,-16 262.6226,-16 262.6226,-16 268.6226,-16 274.6226,-22 274.6226,-28 274.6226,-28 274.6226,-237 274.6226,-237 274.6226,-243 268.6226,-249 262.6226,-249 262.6226,-249 28,-249 28,-249 22,-249 16,-243 16,-237 16,-237 16,-28 16,-28 16,-22 22,-16 28,-16"/>
<text text-anchor="middle" x="145.3113" y="-236.2" font-family="Times,serif" font-size="11.00" fill="#c0c0c0">Cloudonix</text>
</g>
<!-- \\Cloudonix\\Applications -->
<g id="node1" class="node">
<title>\\Cloudonix\\Applications</title>
<polygon fill="none" stroke="#000000" points="266.7292,-222 171.303,-222 171.303,-186 266.7292,-186 266.7292,-222"/>
<text text-anchor="middle" x="219.0161" y="-200.7" font-family="Courier,monospace" font-size="11.00" fill="#000000">Applications</text>
</g>
<!-- \\Cloudonix\\Datamodel -->
<g id="node5" class="node">
<title>\\Cloudonix\\Datamodel</title>
<polygon fill="none" stroke="#000000" points="99.6156,-168 23.794,-168 23.794,-132 99.6156,-132 99.6156,-168"/>
<text text-anchor="middle" x="61.7048" y="-146.7" font-family="Courier,monospace" font-size="11.00" fill="#000000">Datamodel</text>
</g>
<!-- \\Cloudonix\\Applications&#45;&gt;\\Cloudonix\\Datamodel -->
<g id="edge1" class="edge">
<title>\\Cloudonix\\Applications&#45;&gt;\\Cloudonix\\Datamodel</title>
<path fill="none" stroke="#000000" stroke-dasharray="1,5" d="M171.3906,-187.6517C151.6636,-180.88 128.8352,-173.0437 109.1293,-166.2793"/>
<polygon fill="none" stroke="#000000" points="110.0334,-162.8893 99.4387,-162.9529 107.7606,-169.51 110.0334,-162.8893"/>
</g>
<!-- \\Cloudonix\\Tenants -->
<g id="node2" class="node">
<title>\\Cloudonix\\Tenants</title>
<polygon fill="none" stroke="#000000" points="250.224,-168 187.8082,-168 187.8082,-132 250.224,-132 250.224,-168"/>
<text text-anchor="middle" x="219.0161" y="-146.7" font-family="Courier,monospace" font-size="11.00" fill="#000000">Tenants</text>
</g>
<!-- \\Cloudonix\\Tenants&#45;&gt;\\Cloudonix\\Datamodel -->
<g id="edge2" class="edge">
<title>\\Cloudonix\\Tenants&#45;&gt;\\Cloudonix\\Datamodel</title>
<path fill="none" stroke="#000000" stroke-dasharray="1,5" d="M187.5599,-150C165.258,-150 134.9225,-150 109.6222,-150"/>
<polygon fill="none" stroke="#000000" points="109.4857,-146.5001 99.4856,-150 109.4856,-153.5001 109.4857,-146.5001"/>
</g>
<!-- \\Cloudonix\\Domains -->
<g id="node3" class="node">
<title>\\Cloudonix\\Domains</title>
<polygon fill="none" stroke="#000000" points="250.224,-114 187.8082,-114 187.8082,-78 250.224,-78 250.224,-114"/>
<text text-anchor="middle" x="219.0161" y="-92.7" font-family="Courier,monospace" font-size="11.00" fill="#000000">Domains</text>
</g>
<!-- \\Cloudonix\\Domains&#45;&gt;\\Cloudonix\\Datamodel -->
<g id="edge3" class="edge">
<title>\\Cloudonix\\Domains&#45;&gt;\\Cloudonix\\Datamodel</title>
<path fill="none" stroke="#000000" stroke-dasharray="1,5" d="M187.5599,-106.7979C165.0598,-114.5215 134.3826,-125.052 108.9487,-133.7827"/>
<polygon fill="none" stroke="#000000" points="107.8075,-130.4739 99.4856,-137.031 110.0803,-137.0946 107.8075,-130.4739"/>
</g>
<!-- \\Cloudonix\\Client -->
<g id="node4" class="node">
<title>\\Cloudonix\\Client</title>
<polygon fill="none" stroke="#000000" points="246.6239,-60 191.4083,-60 191.4083,-24 246.6239,-24 246.6239,-60"/>
<text text-anchor="middle" x="219.0161" y="-38.7" font-family="Courier,monospace" font-size="11.00" fill="#000000">Client</text>
</g>
</g>
</svg>
