<?xml version="1.0" encoding="UTF-8" standalone="no"?>
<!DOCTYPE svg PUBLIC "-//W3C//DTD SVG 1.1//EN"
 "http://www.w3.org/Graphics/SVG/1.1/DTD/svg11.dtd">
<!-- Generated by graphviz version 2.40.1 (20161225.0304)
 -->
<!-- Title: G Pages: 1 -->
<svg width="444pt" height="1192pt"
 viewBox="0.00 0.00 443.85 1192.00" xmlns="http://www.w3.org/2000/svg" xmlns:xlink="http://www.w3.org/1999/xlink">
<g id="graph0" class="graph" transform="scale(1 1) rotate(0) translate(4 1188)">
<title>G</title>
<polygon fill="#ffffff" stroke="transparent" points="-4,4 -4,-1188 439.8462,-1188 439.8462,4 -4,4"/>
<g id="clust1" class="cluster">
<title>cluster_Global</title>
<path fill="none" stroke="#c0c0c0" d="M20,-44C20,-44 415.8462,-44 415.8462,-44 421.8462,-44 427.8462,-50 427.8462,-56 427.8462,-56 427.8462,-1164 427.8462,-1164 427.8462,-1170 421.8462,-1176 415.8462,-1176 415.8462,-1176 20,-1176 20,-1176 14,-1176 8,-1170 8,-1164 8,-1164 8,-56 8,-56 8,-50 14,-44 20,-44"/>
<text text-anchor="middle" x="217.9231" y="-1163.2" font-family="Times,serif" font-size="11.00" fill="#c0c0c0">Global</text>
</g>
<g id="clust2" class="cluster">
<title>cluster_\Cloudonix</title>
<path fill="none" stroke="#c0c0c0" d="M28,-52C28,-52 407.8462,-52 407.8462,-52 413.8462,-52 419.8462,-58 419.8462,-64 419.8462,-64 419.8462,-1137 419.8462,-1137 419.8462,-1143 413.8462,-1149 407.8462,-1149 407.8462,-1149 28,-1149 28,-1149 22,-1149 16,-1143 16,-1137 16,-1137 16,-64 16,-64 16,-58 22,-52 28,-52"/>
<text text-anchor="middle" x="217.9231" y="-1136.2" font-family="Times,serif" font-size="11.00" fill="#c0c0c0">Cloudonix</text>
</g>
<!-- \\Cloudonix\\SubscriberGetter -->
<g id="node1" class="node">
<title>\\Cloudonix\\SubscriberGetter</title>
<polygon fill="none" stroke="#000000" points="365.4479,-1122 244.2123,-1122 244.2123,-1086 365.4479,-1086 365.4479,-1122"/>
<text text-anchor="middle" x="304.8301" y="-1100.7" font-family="Courier,monospace" font-size="11.00" fill="#000000">SubscriberGetter</text>
</g>
<!-- \\Cloudonix\\SubscriberSetter -->
<g id="node2" class="node">
<title>\\Cloudonix\\SubscriberSetter</title>
<polygon fill="none" stroke="#000000" points="365.4479,-1068 244.2123,-1068 244.2123,-1032 365.4479,-1032 365.4479,-1068"/>
<text text-anchor="middle" x="304.8301" y="-1046.7" font-family="Courier,monospace" font-size="11.00" fill="#000000">SubscriberSetter</text>
</g>
<!-- \\Cloudonix\\Subscribers -->
<g id="node3" class="node">
<title>\\Cloudonix\\Subscribers</title>
<polygon fill="none" stroke="#000000" points="348.9427,-1014 260.7174,-1014 260.7174,-978 348.9427,-978 348.9427,-1014"/>
<text text-anchor="middle" x="304.8301" y="-992.7" font-family="Courier,monospace" font-size="11.00" fill="#000000">Subscribers</text>
</g>
<!-- \\Cloudonix\\LazyDatamodel -->
<g id="node22" class="node">
<title>\\Cloudonix\\LazyDatamodel</title>
<polygon fill="none" stroke="#000000" points="125.7211,-906 24.0928,-906 24.0928,-870 125.7211,-870 125.7211,-906"/>
<text text-anchor="middle" x="74.907" y="-884.7" font-family="Courier,monospace" font-size="11.00" fill="#000000">LazyDatamodel</text>
</g>
<!-- \\Cloudonix\\Subscribers&#45;&gt;\\Cloudonix\\LazyDatamodel -->
<g id="edge1" class="edge">
<title>\\Cloudonix\\Subscribers&#45;&gt;\\Cloudonix\\LazyDatamodel</title>
<path fill="none" stroke="#000000" stroke-dasharray="1,5" d="M260.5079,-988.3083C240.8021,-984.012 217.6291,-977.7284 197.814,-969 164.1325,-954.1635 129.4487,-930.3845 105.5503,-912.4203"/>
<polygon fill="none" stroke="#000000" points="107.6407,-909.6128 97.5663,-906.3328 103.3964,-915.1793 107.6407,-909.6128"/>
</g>
<!-- \\Cloudonix\\DnidGetter -->
<g id="node4" class="node">
<title>\\Cloudonix\\DnidGetter</title>
<polygon fill="none" stroke="#000000" points="345.8408,-960 263.8193,-960 263.8193,-924 345.8408,-924 345.8408,-960"/>
<text text-anchor="middle" x="304.8301" y="-938.7" font-family="Courier,monospace" font-size="11.00" fill="#000000">DnidGetter</text>
</g>
<!-- \\Cloudonix\\Trunks -->
<g id="node5" class="node">
<title>\\Cloudonix\\Trunks</title>
<polygon fill="none" stroke="#000000" points="332.4379,-906 277.2222,-906 277.2222,-870 332.4379,-870 332.4379,-906"/>
<text text-anchor="middle" x="304.8301" y="-884.7" font-family="Courier,monospace" font-size="11.00" fill="#000000">Trunks</text>
</g>
<!-- \\Cloudonix\\Trunks&#45;&gt;\\Cloudonix\\LazyDatamodel -->
<g id="edge2" class="edge">
<title>\\Cloudonix\\Trunks&#45;&gt;\\Cloudonix\\LazyDatamodel</title>
<path fill="none" stroke="#000000" stroke-dasharray="1,5" d="M277.096,-888C242.3403,-888 181.7809,-888 135.9752,-888"/>
<polygon fill="none" stroke="#000000" points="135.853,-884.5001 125.853,-888 135.853,-891.5001 135.853,-884.5001"/>
</g>
<!-- \\Cloudonix\\DnidSetter -->
<g id="node6" class="node">
<title>\\Cloudonix\\DnidSetter</title>
<polygon fill="none" stroke="#000000" points="345.8408,-852 263.8193,-852 263.8193,-816 345.8408,-816 345.8408,-852"/>
<text text-anchor="middle" x="304.8301" y="-830.7" font-family="Courier,monospace" font-size="11.00" fill="#000000">DnidSetter</text>
</g>
<!-- \\Cloudonix\\Applications -->
<g id="node7" class="node">
<title>\\Cloudonix\\Applications</title>
<polygon fill="none" stroke="#000000" points="352.5432,-744 257.1169,-744 257.1169,-708 352.5432,-708 352.5432,-744"/>
<text text-anchor="middle" x="304.8301" y="-722.7" font-family="Courier,monospace" font-size="11.00" fill="#000000">Applications</text>
</g>
<!-- \\Cloudonix\\Datamodel -->
<g id="node21" class="node">
<title>\\Cloudonix\\Datamodel</title>
<polygon fill="none" stroke="#000000" points="112.8178,-690 36.9962,-690 36.9962,-654 112.8178,-654 112.8178,-690"/>
<text text-anchor="middle" x="74.907" y="-668.7" font-family="Courier,monospace" font-size="11.00" fill="#000000">Datamodel</text>
</g>
<!-- \\Cloudonix\\Applications&#45;&gt;\\Cloudonix\\Datamodel -->
<g id="edge3" class="edge">
<title>\\Cloudonix\\Applications&#45;&gt;\\Cloudonix\\Datamodel</title>
<path fill="none" stroke="#000000" stroke-dasharray="1,5" d="M257.1899,-714.8112C217.7433,-705.5467 161.969,-692.4475 122.5278,-683.1843"/>
<polygon fill="none" stroke="#000000" points="123.156,-679.7367 112.6207,-680.8575 121.5555,-686.5512 123.156,-679.7367"/>
</g>
<!-- \\Cloudonix\\DatamodelBuilderException -->
<g id="node8" class="node">
<title>\\Cloudonix\\DatamodelBuilderException</title>
<polygon fill="none" stroke="#000000" points="395.3569,-582 214.3032,-582 214.3032,-546 395.3569,-546 395.3569,-582"/>
<text text-anchor="middle" x="304.8301" y="-560.7" font-family="Courier,monospace" font-size="11.00" fill="#000000">DatamodelBuilderException</text>
</g>
<!-- \\Exception -->
<g id="node23" class="node">
<title>\\Exception</title>
<ellipse fill="none" stroke="#000000" cx="74.907" cy="-18" rx="48.3341" ry="18"/>
<text text-anchor="middle" x="74.907" y="-13.8" font-family="Times,serif" font-size="14.00" fill="#c0c0c0">\Exception</text>
</g>
<!-- \\Cloudonix\\DatamodelBuilderException&#45;&gt;\\Exception -->
<g id="edge4" class="edge">
<title>\\Cloudonix\\DatamodelBuilderException&#45;&gt;\\Exception</title>
<path fill="none" stroke="#000000" d="M214.3112,-550.0766C208.183,-546.5631 202.5678,-542.2597 197.814,-537 50.5144,-374.0257 248.4405,-230.265 125.814,-48 123.0939,-43.9571 119.6306,-40.3816 115.7936,-37.2393"/>
<polygon fill="none" stroke="#000000" points="117.6977,-34.2992 107.511,-31.3868 113.6581,-40.016 117.6977,-34.2992"/>
</g>
<!-- \\Cloudonix\\MissingDomainIdException -->
<g id="node9" class="node">
<title>\\Cloudonix\\MissingDomainIdException</title>
<polygon fill="none" stroke="#000000" points="392.2564,-528 217.4038,-528 217.4038,-492 392.2564,-492 392.2564,-528"/>
<text text-anchor="middle" x="304.8301" y="-506.7" font-family="Courier,monospace" font-size="11.00" fill="#000000">MissingDomainIdException</text>
</g>
<!-- \\Cloudonix\\MissingDomainIdException&#45;&gt;\\Exception -->
<g id="edge5" class="edge">
<title>\\Cloudonix\\MissingDomainIdException&#45;&gt;\\Exception</title>
<path fill="none" stroke="#000000" d="M217.4443,-497.6215C210.1172,-493.8512 203.393,-489.0631 197.814,-483 65.1229,-338.7958 236.6497,-209.6082 125.814,-48 123.0579,-43.9815 119.5721,-40.4214 115.722,-37.2879"/>
<polygon fill="none" stroke="#000000" points="117.6165,-34.3412 107.4251,-31.4451 113.586,-40.0645 117.6165,-34.3412"/>
</g>
<!-- \\Cloudonix\\MissingDnidIdException -->
<g id="node10" class="node">
<title>\\Cloudonix\\MissingDnidIdException</title>
<polygon fill="none" stroke="#000000" points="385.5539,-474 224.1063,-474 224.1063,-438 385.5539,-438 385.5539,-474"/>
<text text-anchor="middle" x="304.8301" y="-452.7" font-family="Courier,monospace" font-size="11.00" fill="#000000">MissingDnidIdException</text>
</g>
<!-- \\Cloudonix\\MissingDnidIdException&#45;&gt;\\Exception -->
<g id="edge6" class="edge">
<title>\\Cloudonix\\MissingDnidIdException&#45;&gt;\\Exception</title>
<path fill="none" stroke="#000000" d="M224.1367,-446.5062C214.262,-442.3982 205.1034,-436.7433 197.814,-429 79.6909,-303.522 224.8927,-189.0007 125.814,-48 123.0124,-44.0131 119.4979,-40.4728 115.6315,-37.3508"/>
<polygon fill="none" stroke="#000000" points="117.5136,-34.3959 107.3164,-31.5206 113.4949,-40.1274 117.5136,-34.3959"/>
</g>
<!-- \\Cloudonix\\MissingApplicationIdException -->
<g id="node11" class="node">
<title>\\Cloudonix\\MissingApplicationIdException</title>
<polygon fill="none" stroke="#000000" points="408.7617,-420 200.8985,-420 200.8985,-384 408.7617,-384 408.7617,-420"/>
<text text-anchor="middle" x="304.8301" y="-398.7" font-family="Courier,monospace" font-size="11.00" fill="#000000">MissingApplicationIdException</text>
</g>
<!-- \\Cloudonix\\MissingApplicationIdException&#45;&gt;\\Exception -->
<g id="edge7" class="edge">
<title>\\Cloudonix\\MissingApplicationIdException&#45;&gt;\\Exception</title>
<path fill="none" stroke="#000000" d="M208.3485,-383.8003C204.5581,-381.2201 201.0159,-378.3009 197.814,-375 94.1986,-268.1842 213.1864,-168.4651 125.814,-48 122.953,-44.0555 119.4012,-40.5419 115.5133,-37.4352"/>
<polygon fill="none" stroke="#000000" points="117.3795,-34.4697 107.1746,-31.6219 113.3762,-40.212 117.3795,-34.4697"/>
</g>
<!-- \\Cloudonix\\MissingSubscriberIdException -->
<g id="node12" class="node">
<title>\\Cloudonix\\MissingSubscriberIdException</title>
<polygon fill="none" stroke="#000000" points="405.1602,-366 204.4999,-366 204.4999,-330 405.1602,-330 405.1602,-366"/>
<text text-anchor="middle" x="304.8301" y="-344.7" font-family="Courier,monospace" font-size="11.00" fill="#000000">MissingSubscriberIdException</text>
</g>
<!-- \\Cloudonix\\MissingSubscriberIdException&#45;&gt;\\Exception -->
<g id="edge8" class="edge">
<title>\\Cloudonix\\MissingSubscriberIdException&#45;&gt;\\Exception</title>
<path fill="none" stroke="#000000" d="M208.9947,-329.9517C204.9802,-327.3376 201.2194,-324.3691 197.814,-321 108.6102,-232.7477 201.5611,-148.0408 125.814,-48 122.8357,-44.0666 119.1798,-40.5523 115.206,-37.4384"/>
<polygon fill="none" stroke="#000000" points="116.9412,-34.3841 106.7178,-31.6033 112.9757,-40.1525 116.9412,-34.3841"/>
</g>
<!-- \\Cloudonix\\MissingTrunkIdException -->
<g id="node13" class="node">
<title>\\Cloudonix\\MissingTrunkIdException</title>
<polygon fill="none" stroke="#000000" points="388.6549,-312 221.0053,-312 221.0053,-276 388.6549,-276 388.6549,-312"/>
<text text-anchor="middle" x="304.8301" y="-290.7" font-family="Courier,monospace" font-size="11.00" fill="#000000">MissingTrunkIdException</text>
</g>
<!-- \\Cloudonix\\MissingTrunkIdException&#45;&gt;\\Exception -->
<g id="edge9" class="edge">
<title>\\Cloudonix\\MissingTrunkIdException&#45;&gt;\\Exception</title>
<path fill="none" stroke="#000000" d="M220.7504,-281.7917C212.3446,-278.037 204.4726,-273.205 197.814,-267 122.8566,-197.1489 190.0762,-127.8007 125.814,-48 122.7195,-44.1573 118.9911,-40.6997 114.9761,-37.618"/>
<polygon fill="none" stroke="#000000" points="116.6812,-34.545 106.4435,-31.8175 112.7458,-40.3341 116.6812,-34.545"/>
</g>
<!-- \\Cloudonix\\MissingAdditionalDataException -->
<g id="node14" class="node">
<title>\\Cloudonix\\MissingAdditionalDataException</title>
<polygon fill="none" stroke="#000000" points="411.8623,-258 197.7978,-258 197.7978,-222 411.8623,-222 411.8623,-258"/>
<text text-anchor="middle" x="304.8301" y="-236.7" font-family="Courier,monospace" font-size="11.00" fill="#000000">MissingAdditionalDataException</text>
</g>
<!-- \\Cloudonix\\MissingAdditionalDataException&#45;&gt;\\Exception -->
<g id="edge10" class="edge">
<title>\\Cloudonix\\MissingAdditionalDataException&#45;&gt;\\Exception</title>
<path fill="none" stroke="#000000" d="M210.6071,-221.8692C206.0643,-219.286 201.7601,-216.3457 197.814,-213 136.7854,-161.2574 178.8641,-107.8954 125.814,-48 122.4152,-44.1627 118.4037,-40.6804 114.1483,-37.5608"/>
<polygon fill="none" stroke="#000000" points="116.0318,-34.6103 105.7609,-32.0105 112.1688,-40.4479 116.0318,-34.6103"/>
</g>
<!-- \\Cloudonix\\Dnids -->
<g id="node15" class="node">
<title>\\Cloudonix\\Dnids</title>
<polygon fill="none" stroke="#000000" points="331.8301,-798 277.8301,-798 277.8301,-762 331.8301,-762 331.8301,-798"/>
<text text-anchor="middle" x="304.8301" y="-776.7" font-family="Courier,monospace" font-size="11.00" fill="#000000">Dnids</text>
</g>
<!-- \\Cloudonix\\Dnids&#45;&gt;\\Cloudonix\\LazyDatamodel -->
<g id="edge11" class="edge">
<title>\\Cloudonix\\Dnids&#45;&gt;\\Cloudonix\\LazyDatamodel</title>
<path fill="none" stroke="#000000" stroke-dasharray="1,5" d="M277.6179,-784.2578C255.4793,-788.3301 223.7665,-795.5681 197.814,-807 164.1325,-821.8365 129.4487,-845.6155 105.5503,-863.5797"/>
<polygon fill="none" stroke="#000000" points="103.3964,-860.8207 97.5663,-869.6672 107.6407,-866.3872 103.3964,-860.8207"/>
</g>
<!-- \\Cloudonix\\Tenants -->
<g id="node16" class="node">
<title>\\Cloudonix\\Tenants</title>
<polygon fill="none" stroke="#000000" points="336.0379,-690 273.6222,-690 273.6222,-654 336.0379,-654 336.0379,-690"/>
<text text-anchor="middle" x="304.8301" y="-668.7" font-family="Courier,monospace" font-size="11.00" fill="#000000">Tenants</text>
</g>
<!-- \\Cloudonix\\Tenants&#45;&gt;\\Cloudonix\\Datamodel -->
<g id="edge12" class="edge">
<title>\\Cloudonix\\Tenants&#45;&gt;\\Cloudonix\\Datamodel</title>
<path fill="none" stroke="#000000" stroke-dasharray="1,5" d="M273.3423,-672C234.5481,-672 168.2386,-672 123.0409,-672"/>
<polygon fill="none" stroke="#000000" points="122.8862,-668.5001 112.8862,-672 122.8862,-675.5001 122.8862,-668.5001"/>
</g>
<!-- \\Cloudonix\\Domains -->
<g id="node17" class="node">
<title>\\Cloudonix\\Domains</title>
<polygon fill="none" stroke="#000000" points="336.0379,-636 273.6222,-636 273.6222,-600 336.0379,-600 336.0379,-636"/>
<text text-anchor="middle" x="304.8301" y="-614.7" font-family="Courier,monospace" font-size="11.00" fill="#000000">Domains</text>
</g>
<!-- \\Cloudonix\\Domains&#45;&gt;\\Cloudonix\\Datamodel -->
<g id="edge13" class="edge">
<title>\\Cloudonix\\Domains&#45;&gt;\\Cloudonix\\Datamodel</title>
<path fill="none" stroke="#000000" stroke-dasharray="1,5" d="M273.3423,-625.3952C234.4664,-634.5257 167.9593,-650.1456 122.7557,-660.7622"/>
<polygon fill="none" stroke="#000000" points="121.821,-657.3864 112.8862,-663.0802 123.4216,-664.201 121.821,-657.3864"/>
</g>
<!-- \\Cloudonix\\Client -->
<g id="node18" class="node">
<title>\\Cloudonix\\Client</title>
<polygon fill="none" stroke="#000000" points="332.4379,-204 277.2222,-204 277.2222,-168 332.4379,-168 332.4379,-204"/>
<text text-anchor="middle" x="304.8301" y="-182.7" font-family="Courier,monospace" font-size="11.00" fill="#000000">Client</text>
</g>
<!-- \\Cloudonix\\TrunkSetter -->
<g id="node19" class="node">
<title>\\Cloudonix\\TrunkSetter</title>
<polygon fill="none" stroke="#000000" points="348.9427,-150 260.7174,-150 260.7174,-114 348.9427,-114 348.9427,-150"/>
<text text-anchor="middle" x="304.8301" y="-128.7" font-family="Courier,monospace" font-size="11.00" fill="#000000">TrunkSetter</text>
</g>
<!-- \\Cloudonix\\TrunkGetter -->
<g id="node20" class="node">
<title>\\Cloudonix\\TrunkGetter</title>
<polygon fill="none" stroke="#000000" points="348.9427,-96 260.7174,-96 260.7174,-60 348.9427,-60 348.9427,-96"/>
<text text-anchor="middle" x="304.8301" y="-74.7" font-family="Courier,monospace" font-size="11.00" fill="#000000">TrunkGetter</text>
</g>
</g>
</svg>
