<?xml version="1.0" encoding="UTF-8" standalone="no"?>
<!DOCTYPE svg PUBLIC "-//W3C//DTD SVG 1.1//EN"
 "http://www.w3.org/Graphics/SVG/1.1/DTD/svg11.dtd">
<!-- Generated by graphviz version 2.40.1 (20161225.0304)
 -->
<!-- Title: G Pages: 1 -->
<svg width="444pt" height="1084pt"
 viewBox="0.00 0.00 443.85 1084.00" xmlns="http://www.w3.org/2000/svg" xmlns:xlink="http://www.w3.org/1999/xlink">
<g id="graph0" class="graph" transform="scale(1 1) rotate(0) translate(4 1080)">
<title>G</title>
<polygon fill="#ffffff" stroke="transparent" points="-4,4 -4,-1080 439.8462,-1080 439.8462,4 -4,4"/>
<g id="clust1" class="cluster">
<title>cluster_Global</title>
<path fill="none" stroke="#c0c0c0" d="M20,-44C20,-44 415.8462,-44 415.8462,-44 421.8462,-44 427.8462,-50 427.8462,-56 427.8462,-56 427.8462,-1056 427.8462,-1056 427.8462,-1062 421.8462,-1068 415.8462,-1068 415.8462,-1068 20,-1068 20,-1068 14,-1068 8,-1062 8,-1056 8,-1056 8,-56 8,-56 8,-50 14,-44 20,-44"/>
<text text-anchor="middle" x="217.9231" y="-1055.2" font-family="Times,serif" font-size="11.00" fill="#c0c0c0">Global</text>
</g>
<g id="clust2" class="cluster">
<title>cluster_\Cloudonix</title>
<path fill="none" stroke="#c0c0c0" d="M28,-52C28,-52 407.8462,-52 407.8462,-52 413.8462,-52 419.8462,-58 419.8462,-64 419.8462,-64 419.8462,-1029 419.8462,-1029 419.8462,-1035 413.8462,-1041 407.8462,-1041 407.8462,-1041 28,-1041 28,-1041 22,-1041 16,-1035 16,-1029 16,-1029 16,-64 16,-64 16,-58 22,-52 28,-52"/>
<text text-anchor="middle" x="217.9231" y="-1028.2" font-family="Times,serif" font-size="11.00" fill="#c0c0c0">Cloudonix</text>
</g>
<!-- \\Cloudonix\\SubscriberGetter -->
<g id="node1" class="node">
<title>\\Cloudonix\\SubscriberGetter</title>
<polygon fill="none" stroke="#000000" points="365.4479,-1014 244.2123,-1014 244.2123,-978 365.4479,-978 365.4479,-1014"/>
<text text-anchor="middle" x="304.8301" y="-992.7" font-family="Courier,monospace" font-size="11.00" fill="#000000">SubscriberGetter</text>
</g>
<!-- \\Cloudonix\\SubscriberSetter -->
<g id="node2" class="node">
<title>\\Cloudonix\\SubscriberSetter</title>
<polygon fill="none" stroke="#000000" points="365.4479,-960 244.2123,-960 244.2123,-924 365.4479,-924 365.4479,-960"/>
<text text-anchor="middle" x="304.8301" y="-938.7" font-family="Courier,monospace" font-size="11.00" fill="#000000">SubscriberSetter</text>
</g>
<!-- \\Cloudonix\\Subscribers -->
<g id="node3" class="node">
<title>\\Cloudonix\\Subscribers</title>
<polygon fill="none" stroke="#000000" points="348.9427,-906 260.7174,-906 260.7174,-870 348.9427,-870 348.9427,-906"/>
<text text-anchor="middle" x="304.8301" y="-884.7" font-family="Courier,monospace" font-size="11.00" fill="#000000">Subscribers</text>
</g>
<!-- \\Cloudonix\\LazyDatamodel -->
<g id="node20" class="node">
<title>\\Cloudonix\\LazyDatamodel</title>
<polygon fill="none" stroke="#000000" points="125.7211,-852 24.0928,-852 24.0928,-816 125.7211,-816 125.7211,-852"/>
<text text-anchor="middle" x="74.907" y="-830.7" font-family="Courier,monospace" font-size="11.00" fill="#000000">LazyDatamodel</text>
</g>
<!-- \\Cloudonix\\Subscribers&#45;&gt;\\Cloudonix\\LazyDatamodel -->
<g id="edge1" class="edge">
<title>\\Cloudonix\\Subscribers&#45;&gt;\\Cloudonix\\LazyDatamodel</title>
<path fill="none" stroke="#000000" stroke-dasharray="1,5" d="M260.4986,-877.5883C225.0855,-869.2711 175.0734,-857.5252 135.8871,-848.3218"/>
<polygon fill="none" stroke="#000000" points="136.4519,-844.8593 125.9165,-845.9802 134.8514,-851.6739 136.4519,-844.8593"/>
</g>
<!-- \\Cloudonix\\DnidGetter -->
<g id="node4" class="node">
<title>\\Cloudonix\\DnidGetter</title>
<polygon fill="none" stroke="#000000" points="345.8408,-852 263.8193,-852 263.8193,-816 345.8408,-816 345.8408,-852"/>
<text text-anchor="middle" x="304.8301" y="-830.7" font-family="Courier,monospace" font-size="11.00" fill="#000000">DnidGetter</text>
</g>
<!-- \\Cloudonix\\Trunks -->
<g id="node5" class="node">
<title>\\Cloudonix\\Trunks</title>
<polygon fill="none" stroke="#000000" points="332.4379,-636 277.2222,-636 277.2222,-600 332.4379,-600 332.4379,-636"/>
<text text-anchor="middle" x="304.8301" y="-614.7" font-family="Courier,monospace" font-size="11.00" fill="#000000">Trunks</text>
</g>
<!-- \\Cloudonix\\Datamodel -->
<g id="node19" class="node">
<title>\\Cloudonix\\Datamodel</title>
<polygon fill="none" stroke="#000000" points="112.8178,-609 36.9962,-609 36.9962,-573 112.8178,-573 112.8178,-609"/>
<text text-anchor="middle" x="74.907" y="-587.7" font-family="Courier,monospace" font-size="11.00" fill="#000000">Datamodel</text>
</g>
<!-- \\Cloudonix\\Trunks&#45;&gt;\\Cloudonix\\Datamodel -->
<g id="edge2" class="edge">
<title>\\Cloudonix\\Trunks&#45;&gt;\\Cloudonix\\Datamodel</title>
<path fill="none" stroke="#000000" stroke-dasharray="1,5" d="M277.096,-614.7432C238.898,-610.2576 169.532,-602.1119 122.8387,-596.6287"/>
<polygon fill="none" stroke="#000000" points="122.9968,-593.1232 112.6568,-595.433 122.1804,-600.0755 122.9968,-593.1232"/>
</g>
<!-- \\Cloudonix\\DnidSetter -->
<g id="node6" class="node">
<title>\\Cloudonix\\DnidSetter</title>
<polygon fill="none" stroke="#000000" points="345.8408,-744 263.8193,-744 263.8193,-708 345.8408,-708 345.8408,-744"/>
<text text-anchor="middle" x="304.8301" y="-722.7" font-family="Courier,monospace" font-size="11.00" fill="#000000">DnidSetter</text>
</g>
<!-- \\Cloudonix\\Applications -->
<g id="node7" class="node">
<title>\\Cloudonix\\Applications</title>
<polygon fill="none" stroke="#000000" points="352.5432,-528 257.1169,-528 257.1169,-492 352.5432,-492 352.5432,-528"/>
<text text-anchor="middle" x="304.8301" y="-506.7" font-family="Courier,monospace" font-size="11.00" fill="#000000">Applications</text>
</g>
<!-- \\Cloudonix\\Applications&#45;&gt;\\Cloudonix\\Datamodel -->
<g id="edge3" class="edge">
<title>\\Cloudonix\\Applications&#45;&gt;\\Cloudonix\\Datamodel</title>
<path fill="none" stroke="#000000" stroke-dasharray="1,5" d="M257.1842,-520.2199C238.4709,-524.6999 216.9348,-530.4388 197.814,-537 171.754,-545.9423 143.5539,-558.1405 120.7469,-568.6809"/>
<polygon fill="none" stroke="#000000" points="119.2267,-565.5279 111.6468,-572.9303 122.1885,-571.8705 119.2267,-565.5279"/>
</g>
<!-- \\Cloudonix\\DatamodelBuilderException -->
<g id="node8" class="node">
<title>\\Cloudonix\\DatamodelBuilderException</title>
<polygon fill="none" stroke="#000000" points="395.3569,-258 214.3032,-258 214.3032,-222 395.3569,-222 395.3569,-258"/>
<text text-anchor="middle" x="304.8301" y="-236.7" font-family="Courier,monospace" font-size="11.00" fill="#000000">DatamodelBuilderException</text>
</g>
<!-- \\Exception -->
<g id="node21" class="node">
<title>\\Exception</title>
<ellipse fill="none" stroke="#000000" cx="74.907" cy="-18" rx="48.3341" ry="18"/>
<text text-anchor="middle" x="74.907" y="-13.8" font-family="Times,serif" font-size="14.00" fill="#c0c0c0">\Exception</text>
</g>
<!-- \\Cloudonix\\DatamodelBuilderException&#45;&gt;\\Exception -->
<g id="edge4" class="edge">
<title>\\Cloudonix\\DatamodelBuilderException&#45;&gt;\\Exception</title>
<path fill="none" stroke="#000000" d="M214.1864,-223.8072C208.3201,-220.7834 202.7832,-217.2131 197.814,-213 136.7854,-161.2574 178.8641,-107.8954 125.814,-48 122.4152,-44.1627 118.4037,-40.6804 114.1483,-37.5608"/>
<polygon fill="none" stroke="#000000" points="116.0318,-34.6103 105.7609,-32.0105 112.1688,-40.4479 116.0318,-34.6103"/>
</g>
<!-- \\Cloudonix\\MissingDomainIdException -->
<g id="node9" class="node">
<title>\\Cloudonix\\MissingDomainIdException</title>
<polygon fill="none" stroke="#000000" points="392.2564,-204 217.4038,-204 217.4038,-168 392.2564,-168 392.2564,-204"/>
<text text-anchor="middle" x="304.8301" y="-182.7" font-family="Courier,monospace" font-size="11.00" fill="#000000">MissingDomainIdException</text>
</g>
<!-- \\Cloudonix\\MissingDomainIdException&#45;&gt;\\Exception -->
<g id="edge5" class="edge">
<title>\\Cloudonix\\MissingDomainIdException&#45;&gt;\\Exception</title>
<path fill="none" stroke="#000000" d="M217.6068,-170.065C210.5994,-167.0007 203.8906,-163.3497 197.814,-159 149.9985,-124.7734 168.2762,-88.6785 125.814,-48 122.0221,-44.3674 117.7113,-40.9881 113.2408,-37.906"/>
<polygon fill="none" stroke="#000000" points="114.8542,-34.7838 104.5411,-32.3569 111.0898,-40.6854 114.8542,-34.7838"/>
</g>
<!-- \\Cloudonix\\MissingDnidIdException -->
<g id="node10" class="node">
<title>\\Cloudonix\\MissingDnidIdException</title>
<polygon fill="none" stroke="#000000" points="385.5539,-150 224.1063,-150 224.1063,-114 385.5539,-114 385.5539,-150"/>
<text text-anchor="middle" x="304.8301" y="-128.7" font-family="Courier,monospace" font-size="11.00" fill="#000000">MissingDnidIdException</text>
</g>
<!-- \\Cloudonix\\MissingDnidIdException&#45;&gt;\\Exception -->
<g id="edge6" class="edge">
<title>\\Cloudonix\\MissingDnidIdException&#45;&gt;\\Exception</title>
<path fill="none" stroke="#000000" d="M224.0248,-115.5521C214.9792,-112.5628 206.0619,-109.0699 197.814,-105 161.2134,-86.9396 159.4742,-71.0817 125.814,-48 120.9902,-44.6922 115.7899,-41.3697 110.6202,-38.2032"/>
<polygon fill="none" stroke="#000000" points="112.3977,-35.1881 102.0205,-33.0515 108.8004,-41.193 112.3977,-35.1881"/>
</g>
<!-- \\Cloudonix\\MissingApplicationIdException -->
<g id="node11" class="node">
<title>\\Cloudonix\\MissingApplicationIdException</title>
<polygon fill="none" stroke="#000000" points="408.7617,-474 200.8985,-474 200.8985,-438 408.7617,-438 408.7617,-474"/>
<text text-anchor="middle" x="304.8301" y="-452.7" font-family="Courier,monospace" font-size="11.00" fill="#000000">MissingApplicationIdException</text>
</g>
<!-- \\Cloudonix\\MissingApplicationIdException&#45;&gt;\\Exception -->
<g id="edge7" class="edge">
<title>\\Cloudonix\\MissingApplicationIdException&#45;&gt;\\Exception</title>
<path fill="none" stroke="#000000" d="M208.2259,-437.9176C204.4679,-435.3064 200.9661,-432.3484 197.814,-429 79.6909,-303.522 224.8927,-189.0007 125.814,-48 123.0124,-44.0131 119.4979,-40.4728 115.6315,-37.3508"/>
<polygon fill="none" stroke="#000000" points="117.5136,-34.3959 107.3164,-31.5206 113.4949,-40.1274 117.5136,-34.3959"/>
</g>
<!-- \\Cloudonix\\MissingSubscriberIdException -->
<g id="node12" class="node">
<title>\\Cloudonix\\MissingSubscriberIdException</title>
<polygon fill="none" stroke="#000000" points="405.1602,-420 204.4999,-420 204.4999,-384 405.1602,-384 405.1602,-420"/>
<text text-anchor="middle" x="304.8301" y="-398.7" font-family="Courier,monospace" font-size="11.00" fill="#000000">MissingSubscriberIdException</text>
</g>
<!-- \\Cloudonix\\MissingSubscriberIdException&#45;&gt;\\Exception -->
<g id="edge8" class="edge">
<title>\\Cloudonix\\MissingSubscriberIdException&#45;&gt;\\Exception</title>
<path fill="none" stroke="#000000" d="M208.3485,-383.8003C204.5581,-381.2201 201.0159,-378.3009 197.814,-375 94.1986,-268.1842 213.1864,-168.4651 125.814,-48 122.953,-44.0555 119.4012,-40.5419 115.5133,-37.4352"/>
<polygon fill="none" stroke="#000000" points="117.3795,-34.4697 107.1746,-31.6219 113.3762,-40.212 117.3795,-34.4697"/>
</g>
<!-- \\Cloudonix\\MissingTrunkIdException -->
<g id="node13" class="node">
<title>\\Cloudonix\\MissingTrunkIdException</title>
<polygon fill="none" stroke="#000000" points="388.6549,-366 221.0053,-366 221.0053,-330 388.6549,-330 388.6549,-366"/>
<text text-anchor="middle" x="304.8301" y="-344.7" font-family="Courier,monospace" font-size="11.00" fill="#000000">MissingTrunkIdException</text>
</g>
<!-- \\Cloudonix\\MissingTrunkIdException&#45;&gt;\\Exception -->
<g id="edge9" class="edge">
<title>\\Cloudonix\\MissingTrunkIdException&#45;&gt;\\Exception</title>
<path fill="none" stroke="#000000" d="M220.9029,-336.4223C212.3648,-332.5646 204.4204,-327.536 197.814,-321 108.6102,-232.7477 201.5611,-148.0408 125.814,-48 122.8357,-44.0666 119.1798,-40.5523 115.206,-37.4384"/>
<polygon fill="none" stroke="#000000" points="116.9412,-34.3841 106.7178,-31.6033 112.9757,-40.1525 116.9412,-34.3841"/>
</g>
<!-- \\Cloudonix\\MissingAdditionalDataException -->
<g id="node14" class="node">
<title>\\Cloudonix\\MissingAdditionalDataException</title>
<polygon fill="none" stroke="#000000" points="411.8623,-312 197.7978,-312 197.7978,-276 411.8623,-276 411.8623,-312"/>
<text text-anchor="middle" x="304.8301" y="-290.7" font-family="Courier,monospace" font-size="11.00" fill="#000000">MissingAdditionalDataException</text>
</g>
<!-- \\Cloudonix\\MissingAdditionalDataException&#45;&gt;\\Exception -->
<g id="edge10" class="edge">
<title>\\Cloudonix\\MissingAdditionalDataException&#45;&gt;\\Exception</title>
<path fill="none" stroke="#000000" d="M209.2369,-275.6995C205.1592,-273.1513 201.3185,-270.2658 197.814,-267 122.8566,-197.1489 190.0762,-127.8007 125.814,-48 122.7195,-44.1573 118.9911,-40.6997 114.9761,-37.618"/>
<polygon fill="none" stroke="#000000" points="116.6812,-34.545 106.4435,-31.8175 112.7458,-40.3341 116.6812,-34.545"/>
</g>
<!-- \\Cloudonix\\Dnids -->
<g id="node15" class="node">
<title>\\Cloudonix\\Dnids</title>
<polygon fill="none" stroke="#000000" points="331.8301,-798 277.8301,-798 277.8301,-762 331.8301,-762 331.8301,-798"/>
<text text-anchor="middle" x="304.8301" y="-776.7" font-family="Courier,monospace" font-size="11.00" fill="#000000">Dnids</text>
</g>
<!-- \\Cloudonix\\Dnids&#45;&gt;\\Cloudonix\\LazyDatamodel -->
<g id="edge11" class="edge">
<title>\\Cloudonix\\Dnids&#45;&gt;\\Cloudonix\\LazyDatamodel</title>
<path fill="none" stroke="#000000" stroke-dasharray="1,5" d="M277.552,-786.4066C242.8647,-794.5533 181.9562,-808.8583 135.946,-819.6643"/>
<polygon fill="none" stroke="#000000" points="135.0098,-816.2889 126.0749,-821.9826 136.6103,-823.1035 135.0098,-816.2889"/>
</g>
<!-- \\Cloudonix\\Tenants -->
<g id="node16" class="node">
<title>\\Cloudonix\\Tenants</title>
<polygon fill="none" stroke="#000000" points="336.0379,-690 273.6222,-690 273.6222,-654 336.0379,-654 336.0379,-690"/>
<text text-anchor="middle" x="304.8301" y="-668.7" font-family="Courier,monospace" font-size="11.00" fill="#000000">Tenants</text>
</g>
<!-- \\Cloudonix\\Tenants&#45;&gt;\\Cloudonix\\Datamodel -->
<g id="edge12" class="edge">
<title>\\Cloudonix\\Tenants&#45;&gt;\\Cloudonix\\Datamodel</title>
<path fill="none" stroke="#000000" stroke-dasharray="1,5" d="M273.5216,-665.5492C251.9688,-660.7578 222.8251,-653.5824 197.814,-645 171.754,-636.0577 143.5539,-623.8595 120.7469,-613.3191"/>
<polygon fill="none" stroke="#000000" points="122.1885,-610.1295 111.6468,-609.0697 119.2267,-616.4721 122.1885,-610.1295"/>
</g>
<!-- \\Cloudonix\\Domains -->
<g id="node17" class="node">
<title>\\Cloudonix\\Domains</title>
<polygon fill="none" stroke="#000000" points="336.0379,-582 273.6222,-582 273.6222,-546 336.0379,-546 336.0379,-582"/>
<text text-anchor="middle" x="304.8301" y="-560.7" font-family="Courier,monospace" font-size="11.00" fill="#000000">Domains</text>
</g>
<!-- \\Cloudonix\\Domains&#45;&gt;\\Cloudonix\\Datamodel -->
<g id="edge13" class="edge">
<title>\\Cloudonix\\Domains&#45;&gt;\\Cloudonix\\Datamodel</title>
<path fill="none" stroke="#000000" stroke-dasharray="1,5" d="M273.3423,-567.6976C234.5481,-572.2533 168.2386,-580.04 123.0409,-585.3476"/>
<polygon fill="none" stroke="#000000" points="122.4097,-581.8976 112.8862,-586.5401 123.2262,-588.8498 122.4097,-581.8976"/>
</g>
<!-- \\Cloudonix\\Client -->
<g id="node18" class="node">
<title>\\Cloudonix\\Client</title>
<polygon fill="none" stroke="#000000" points="332.4379,-96 277.2222,-96 277.2222,-60 332.4379,-60 332.4379,-96"/>
<text text-anchor="middle" x="304.8301" y="-74.7" font-family="Courier,monospace" font-size="11.00" fill="#000000">Client</text>
</g>
</g>
</svg>
