<?xml version="1.0" encoding="UTF-8" standalone="no"?>
<!DOCTYPE svg PUBLIC "-//W3C//DTD SVG 1.1//EN"
 "http://www.w3.org/Graphics/SVG/1.1/DTD/svg11.dtd">
<!-- Generated by graphviz version 2.40.1 (20161225.0304)
 -->
<!-- Title: G Pages: 1 -->
<svg width="649pt" height="992pt"
 viewBox="0.00 0.00 649.49 992.00" xmlns="http://www.w3.org/2000/svg" xmlns:xlink="http://www.w3.org/1999/xlink">
<g id="graph0" class="graph" transform="scale(1 1) rotate(0) translate(4 988)">
<title>G</title>
<polygon fill="#ffffff" stroke="transparent" points="-4,4 -4,-988 645.4888,-988 645.4888,4 -4,4"/>
<g id="clust1" class="cluster">
<title>cluster_Global</title>
<path fill="none" stroke="#c0c0c0" d="M156.834,-8C156.834,-8 621.4888,-8 621.4888,-8 627.4888,-8 633.4888,-14 633.4888,-20 633.4888,-20 633.4888,-964 633.4888,-964 633.4888,-970 627.4888,-976 621.4888,-976 621.4888,-976 156.834,-976 156.834,-976 150.834,-976 144.834,-970 144.834,-964 144.834,-964 144.834,-20 144.834,-20 144.834,-14 150.834,-8 156.834,-8"/>
<text text-anchor="middle" x="389.1614" y="-963.2" font-family="Times,serif" font-size="11.00" fill="#c0c0c0">Global</text>
</g>
<g id="clust2" class="cluster">
<title>cluster_\Cloudonix</title>
<path fill="none" stroke="#c0c0c0" d="M164.834,-16C164.834,-16 613.4888,-16 613.4888,-16 619.4888,-16 625.4888,-22 625.4888,-28 625.4888,-28 625.4888,-937 625.4888,-937 625.4888,-943 619.4888,-949 613.4888,-949 613.4888,-949 164.834,-949 164.834,-949 158.834,-949 152.834,-943 152.834,-937 152.834,-937 152.834,-28 152.834,-28 152.834,-22 158.834,-16 164.834,-16"/>
<text text-anchor="middle" x="389.1614" y="-936.2" font-family="Times,serif" font-size="11.00" fill="#c0c0c0">Cloudonix</text>
</g>
<g id="clust3" class="cluster">
<title>cluster_\Cloudonix\Exceptions</title>
<path fill="none" stroke="#c0c0c0" d="M172.834,-203C172.834,-203 605.4888,-203 605.4888,-203 611.4888,-203 617.4888,-209 617.4888,-215 617.4888,-215 617.4888,-910 617.4888,-910 617.4888,-916 611.4888,-922 605.4888,-922 605.4888,-922 172.834,-922 172.834,-922 166.834,-922 160.834,-916 160.834,-910 160.834,-910 160.834,-215 160.834,-215 160.834,-209 166.834,-203 172.834,-203"/>
<text text-anchor="middle" x="389.1614" y="-909.2" font-family="Times,serif" font-size="11.00" fill="#c0c0c0">Exceptions</text>
</g>
<g id="clust4" class="cluster">
<title>cluster_\Cloudonix\Datamodels</title>
<path fill="none" stroke="#c0c0c0" d="M465.4673,-70C465.4673,-70 519.6748,-70 519.6748,-70 525.6748,-70 531.6748,-76 531.6748,-82 531.6748,-82 531.6748,-183 531.6748,-183 531.6748,-189 525.6748,-195 519.6748,-195 519.6748,-195 465.4673,-195 465.4673,-195 459.4673,-195 453.4673,-189 453.4673,-183 453.4673,-183 453.4673,-82 453.4673,-82 453.4673,-76 459.4673,-70 465.4673,-70"/>
<text text-anchor="middle" x="492.571" y="-182.2" font-family="Times,serif" font-size="11.00" fill="#c0c0c0">Datamodels</text>
</g>
<!-- \\Cloudonix\\Exceptions\\TenantGeneralException -->
<g id="node1" class="node">
<title>\\Cloudonix\\Exceptions\\TenantGeneralException</title>
<polygon fill="none" stroke="#000000" points="573.2948,-895 411.8473,-895 411.8473,-859 573.2948,-859 573.2948,-895"/>
<text text-anchor="middle" x="492.571" y="-873.7" font-family="Courier,monospace" font-size="11.00" fill="#000000">TenantGeneralException</text>
</g>
<!-- \\Cloudonix\\Exceptions\\CloudonixException -->
<g id="node5" class="node">
<title>\\Cloudonix\\Exceptions\\CloudonixException</title>
<polygon fill="none" stroke="#000000" points="303.5631,-571 168.9242,-571 168.9242,-535 303.5631,-535 303.5631,-571"/>
<text text-anchor="start" x="203.2383" y="-555.2" font-family="Courier,monospace" font-size="11.00" fill="#000000">«abstract»</text>
<text text-anchor="start" x="176.834" y="-544.2" font-family="Courier,monospace" font-size="11.00" fill="#000000">CloudonixException</text>
</g>
<!-- \\Cloudonix\\Exceptions\\TenantGeneralException&#45;&gt;\\Cloudonix\\Exceptions\\CloudonixException -->
<g id="edge1" class="edge">
<title>\\Cloudonix\\Exceptions\\TenantGeneralException&#45;&gt;\\Cloudonix\\Exceptions\\CloudonixException</title>
<path fill="none" stroke="#000000" d="M411.7268,-868.4521C398.7138,-864.3458 386.1062,-858.4432 375.6533,-850 288.053,-779.2417 252.6117,-640.6485 241.012,-581.1889"/>
<polygon fill="none" stroke="#000000" points="244.3933,-580.2288 239.1163,-571.0416 237.5123,-581.5143 244.3933,-580.2288"/>
</g>
<!-- \\Cloudonix\\Exceptions\\TenantCreateException -->
<g id="node2" class="node">
<title>\\Cloudonix\\Exceptions\\TenantCreateException</title>
<polygon fill="none" stroke="#000000" points="569.6941,-841 415.448,-841 415.448,-805 569.6941,-805 569.6941,-841"/>
<text text-anchor="middle" x="492.571" y="-819.7" font-family="Courier,monospace" font-size="11.00" fill="#000000">TenantCreateException</text>
</g>
<!-- \\Cloudonix\\Exceptions\\TenantCreateException&#45;&gt;\\Cloudonix\\Exceptions\\CloudonixException -->
<g id="edge2" class="edge">
<title>\\Cloudonix\\Exceptions\\TenantCreateException&#45;&gt;\\Cloudonix\\Exceptions\\CloudonixException</title>
<path fill="none" stroke="#000000" d="M415.3382,-814.6278C401.2109,-810.5619 387.2799,-804.6285 375.6533,-796 300.7475,-740.4101 259.8317,-631.728 244.0185,-580.7038"/>
<polygon fill="none" stroke="#000000" points="247.3366,-579.5835 241.1048,-571.0153 240.6332,-581.5996 247.3366,-579.5835"/>
</g>
<!-- \\Cloudonix\\Exceptions\\TenantUpdateException -->
<g id="node3" class="node">
<title>\\Cloudonix\\Exceptions\\TenantUpdateException</title>
<polygon fill="none" stroke="#000000" points="569.6941,-787 415.448,-787 415.448,-751 569.6941,-751 569.6941,-787"/>
<text text-anchor="middle" x="492.571" y="-765.7" font-family="Courier,monospace" font-size="11.00" fill="#000000">TenantUpdateException</text>
</g>
<!-- \\Cloudonix\\Exceptions\\TenantUpdateException&#45;&gt;\\Cloudonix\\Exceptions\\CloudonixException -->
<g id="edge3" class="edge">
<title>\\Cloudonix\\Exceptions\\TenantUpdateException&#45;&gt;\\Cloudonix\\Exceptions\\CloudonixException</title>
<path fill="none" stroke="#000000" d="M415.1762,-759.2848C401.2937,-755.3267 387.4941,-749.7765 375.6533,-742 313.3401,-701.0754 268.9229,-622.1972 248.6252,-580.4567"/>
<polygon fill="none" stroke="#000000" points="251.6661,-578.7014 244.2117,-571.1726 245.3441,-581.7068 251.6661,-578.7014"/>
</g>
<!-- \\Cloudonix\\Exceptions\\TenantDeleteException -->
<g id="node4" class="node">
<title>\\Cloudonix\\Exceptions\\TenantDeleteException</title>
<polygon fill="none" stroke="#000000" points="569.6941,-733 415.448,-733 415.448,-697 569.6941,-697 569.6941,-733"/>
<text text-anchor="middle" x="492.571" y="-711.7" font-family="Courier,monospace" font-size="11.00" fill="#000000">TenantDeleteException</text>
</g>
<!-- \\Cloudonix\\Exceptions\\TenantDeleteException&#45;&gt;\\Cloudonix\\Exceptions\\CloudonixException -->
<g id="edge4" class="edge">
<title>\\Cloudonix\\Exceptions\\TenantDeleteException&#45;&gt;\\Cloudonix\\Exceptions\\CloudonixException</title>
<path fill="none" stroke="#000000" d="M415.2282,-703.4C401.56,-699.6214 387.8233,-694.6191 375.6533,-688 325.334,-660.6317 280.3631,-610.0722 255.8305,-579.1961"/>
<polygon fill="none" stroke="#000000" points="258.3788,-576.7727 249.4655,-571.0451 252.8616,-581.0809 258.3788,-576.7727"/>
</g>
<!-- \\Exception -->
<g id="node20" class="node">
<title>\\Exception</title>
<ellipse fill="none" stroke="#000000" cx="48.417" cy="-553" rx="48.3341" ry="18"/>
<text text-anchor="middle" x="48.417" y="-548.8" font-family="Times,serif" font-size="14.00" fill="#c0c0c0">\Exception</text>
</g>
<!-- \\Cloudonix\\Exceptions\\CloudonixException&#45;&gt;\\Exception -->
<g id="edge5" class="edge">
<title>\\Cloudonix\\Exceptions\\CloudonixException&#45;&gt;\\Exception</title>
<path fill="none" stroke="#000000" d="M168.6993,-553C148.6406,-553 126.8355,-553 107.3683,-553"/>
<polygon fill="none" stroke="#000000" points="107.1225,-549.5001 97.1225,-553 107.1225,-556.5001 107.1225,-549.5001"/>
</g>
<!-- \\Cloudonix\\Exceptions\\CloudonixGeneralException -->
<g id="node6" class="node">
<title>\\Cloudonix\\Exceptions\\CloudonixGeneralException</title>
<polygon fill="none" stroke="#000000" points="583.0979,-679 402.0442,-679 402.0442,-643 583.0979,-643 583.0979,-679"/>
<text text-anchor="middle" x="492.571" y="-657.7" font-family="Courier,monospace" font-size="11.00" fill="#000000">CloudonixGeneralException</text>
</g>
<!-- \\Cloudonix\\Exceptions\\CloudonixGeneralException&#45;&gt;\\Cloudonix\\Exceptions\\CloudonixException -->
<g id="edge7" class="edge">
<title>\\Cloudonix\\Exceptions\\CloudonixGeneralException&#45;&gt;\\Cloudonix\\Exceptions\\CloudonixException</title>
<path fill="none" stroke="#000000" d="M402.0526,-642.9637C393.0191,-640.3131 384.0802,-637.3331 375.6533,-634 337.7207,-618.9964 297.7991,-594.8265 270.445,-576.7882"/>
<polygon fill="none" stroke="#000000" points="272.2842,-573.8077 262.0238,-571.1664 268.3976,-579.6297 272.2842,-573.8077"/>
</g>
<!-- \\Cloudonix\\Exceptions\\CloudonixCacheException -->
<g id="node7" class="node">
<title>\\Cloudonix\\Exceptions\\CloudonixCacheException</title>
<polygon fill="none" stroke="#000000" points="576.3958,-625 408.7462,-625 408.7462,-589 576.3958,-589 576.3958,-625"/>
<text text-anchor="middle" x="492.571" y="-603.7" font-family="Courier,monospace" font-size="11.00" fill="#000000">CloudonixCacheException</text>
</g>
<!-- \\Cloudonix\\Exceptions\\CloudonixCacheException&#45;&gt;\\Cloudonix\\Exceptions\\CloudonixException -->
<g id="edge8" class="edge">
<title>\\Cloudonix\\Exceptions\\CloudonixCacheException&#45;&gt;\\Cloudonix\\Exceptions\\CloudonixException</title>
<path fill="none" stroke="#000000" d="M408.6399,-589.3184C378.0752,-582.8794 343.6851,-575.6345 313.707,-569.3191"/>
<polygon fill="none" stroke="#000000" points="314.2283,-565.8521 303.7216,-567.2154 312.7853,-572.7018 314.2283,-565.8521"/>
</g>
<!-- \\Cloudonix\\Exceptions\\CloudonixApikeyException -->
<g id="node8" class="node">
<title>\\Cloudonix\\Exceptions\\CloudonixApikeyException</title>
<polygon fill="none" stroke="#000000" points="579.9973,-571 405.1447,-571 405.1447,-535 579.9973,-535 579.9973,-571"/>
<text text-anchor="middle" x="492.571" y="-549.7" font-family="Courier,monospace" font-size="11.00" fill="#000000">CloudonixApikeyException</text>
</g>
<!-- \\Cloudonix\\Exceptions\\CloudonixApikeyException&#45;&gt;\\Cloudonix\\Exceptions\\CloudonixException -->
<g id="edge9" class="edge">
<title>\\Cloudonix\\Exceptions\\CloudonixApikeyException&#45;&gt;\\Cloudonix\\Exceptions\\CloudonixException</title>
<path fill="none" stroke="#000000" d="M405.0746,-553C375.6242,-553 342.9777,-553 314.3027,-553"/>
<polygon fill="none" stroke="#000000" points="313.9312,-549.5001 303.9312,-553 313.9312,-556.5001 313.9312,-549.5001"/>
</g>
<!-- \\Cloudonix\\Exceptions\\CloudonixHttpClientException -->
<g id="node9" class="node">
<title>\\Cloudonix\\Exceptions\\CloudonixHttpClientException</title>
<polygon fill="none" stroke="#000000" points="592.9012,-517 392.2409,-517 392.2409,-481 592.9012,-481 592.9012,-517"/>
<text text-anchor="middle" x="492.571" y="-495.7" font-family="Courier,monospace" font-size="11.00" fill="#000000">CloudonixHttpClientException</text>
</g>
<!-- \\Cloudonix\\Exceptions\\CloudonixHttpClientException&#45;&gt;\\Cloudonix\\Exceptions\\CloudonixException -->
<g id="edge10" class="edge">
<title>\\Cloudonix\\Exceptions\\CloudonixHttpClientException&#45;&gt;\\Cloudonix\\Exceptions\\CloudonixException</title>
<path fill="none" stroke="#000000" d="M406.8614,-517.0563C376.6562,-523.4195 342.9045,-530.53 313.4443,-536.7363"/>
<polygon fill="none" stroke="#000000" points="312.693,-533.3177 303.6293,-538.804 314.136,-540.1673 312.693,-533.3177"/>
</g>
<!-- \\Cloudonix\\Exceptions\\ApplicationAuthorizationException -->
<g id="node10" class="node">
<title>\\Cloudonix\\Exceptions\\ApplicationAuthorizationException</title>
<polygon fill="none" stroke="#000000" points="609.4065,-463 375.7355,-463 375.7355,-427 609.4065,-427 609.4065,-463"/>
<text text-anchor="middle" x="492.571" y="-441.7" font-family="Courier,monospace" font-size="11.00" fill="#000000">ApplicationAuthorizationException</text>
</g>
<!-- \\Cloudonix\\Exceptions\\ApplicationAuthorizationException&#45;&gt;\\Cloudonix\\Exceptions\\CloudonixException -->
<g id="edge13" class="edge">
<title>\\Cloudonix\\Exceptions\\ApplicationAuthorizationException&#45;&gt;\\Cloudonix\\Exceptions\\CloudonixException</title>
<path fill="none" stroke="#000000" d="M397.4626,-463.008C389.9318,-465.62 382.5713,-468.6007 375.6533,-472 341.278,-488.891 339.9427,-508.0445 305.0263,-529.6395"/>
<polygon fill="none" stroke="#000000" points="302.8579,-526.8498 295.9469,-534.8803 306.3573,-532.9123 302.8579,-526.8498"/>
</g>
<!-- \\Cloudonix\\Exceptions\\ApplicationGeneralException -->
<g id="node11" class="node">
<title>\\Cloudonix\\Exceptions\\ApplicationGeneralException</title>
<polygon fill="none" stroke="#000000" points="589.8002,-409 395.3419,-409 395.3419,-373 589.8002,-373 589.8002,-409"/>
<text text-anchor="middle" x="492.571" y="-387.7" font-family="Courier,monospace" font-size="11.00" fill="#000000">ApplicationGeneralException</text>
</g>
<!-- \\Cloudonix\\Exceptions\\ApplicationGeneralException&#45;&gt;\\Cloudonix\\Exceptions\\CloudonixException -->
<g id="edge14" class="edge">
<title>\\Cloudonix\\Exceptions\\ApplicationGeneralException&#45;&gt;\\Cloudonix\\Exceptions\\CloudonixException</title>
<path fill="none" stroke="#000000" d="M395.2166,-407.0867C388.3056,-410.1281 381.6928,-413.7317 375.6533,-418 329.5862,-450.5567 348.4189,-490.0898 305.8598,-528.4391"/>
<polygon fill="none" stroke="#000000" points="303.6182,-525.7511 298.1595,-534.8314 308.0894,-531.1371 303.6182,-525.7511"/>
</g>
<!-- \\Cloudonix\\Exceptions\\ApplicationCreateException -->
<g id="node12" class="node">
<title>\\Cloudonix\\Exceptions\\ApplicationCreateException</title>
<polygon fill="none" stroke="#000000" points="586.1993,-355 398.9427,-355 398.9427,-319 586.1993,-319 586.1993,-355"/>
<text text-anchor="middle" x="492.571" y="-333.7" font-family="Courier,monospace" font-size="11.00" fill="#000000">ApplicationCreateException</text>
</g>
<!-- \\Cloudonix\\Exceptions\\ApplicationCreateException&#45;&gt;\\Cloudonix\\Exceptions\\CloudonixException -->
<g id="edge15" class="edge">
<title>\\Cloudonix\\Exceptions\\ApplicationCreateException&#45;&gt;\\Cloudonix\\Exceptions\\CloudonixException</title>
<path fill="none" stroke="#000000" d="M398.726,-350.0519C390.3977,-353.6883 382.5315,-358.2611 375.6533,-364 316.1375,-413.6578 359.4683,-471.5558 306.1462,-527.7644"/>
<polygon fill="none" stroke="#000000" points="303.4758,-525.4797 298.7585,-534.9664 308.3622,-530.4921 303.4758,-525.4797"/>
</g>
<!-- \\Cloudonix\\Exceptions\\ApplicationUpdateException -->
<g id="node13" class="node">
<title>\\Cloudonix\\Exceptions\\ApplicationUpdateException</title>
<polygon fill="none" stroke="#000000" points="586.1993,-301 398.9427,-301 398.9427,-265 586.1993,-265 586.1993,-301"/>
<text text-anchor="middle" x="492.571" y="-279.7" font-family="Courier,monospace" font-size="11.00" fill="#000000">ApplicationUpdateException</text>
</g>
<!-- \\Cloudonix\\Exceptions\\ApplicationUpdateException&#45;&gt;\\Cloudonix\\Exceptions\\CloudonixException -->
<g id="edge16" class="edge">
<title>\\Cloudonix\\Exceptions\\ApplicationUpdateException&#45;&gt;\\Cloudonix\\Exceptions\\CloudonixException</title>
<path fill="none" stroke="#000000" d="M398.7362,-295.1458C390.304,-298.9499 382.4137,-303.8098 375.6533,-310 301.9943,-377.4467 371.7225,-452.7528 306.4399,-527.2483"/>
<polygon fill="none" stroke="#000000" points="303.526,-525.2379 299.2249,-534.9204 308.6253,-530.0334 303.526,-525.2379"/>
</g>
<!-- \\Cloudonix\\Exceptions\\ApplicationDeleteException -->
<g id="node14" class="node">
<title>\\Cloudonix\\Exceptions\\ApplicationDeleteException</title>
<polygon fill="none" stroke="#000000" points="586.1993,-247 398.9427,-247 398.9427,-211 586.1993,-211 586.1993,-247"/>
<text text-anchor="middle" x="492.571" y="-225.7" font-family="Courier,monospace" font-size="11.00" fill="#000000">ApplicationDeleteException</text>
</g>
<!-- \\Cloudonix\\Exceptions\\ApplicationDeleteException&#45;&gt;\\Cloudonix\\Exceptions\\CloudonixException -->
<g id="edge17" class="edge">
<title>\\Cloudonix\\Exceptions\\ApplicationDeleteException&#45;&gt;\\Cloudonix\\Exceptions\\CloudonixException</title>
<path fill="none" stroke="#000000" d="M398.9261,-240.4789C390.3511,-244.3987 382.378,-249.4684 375.6533,-256 287.4146,-341.7061 384.8832,-434.0435 306.3905,-527.2192"/>
<polygon fill="none" stroke="#000000" points="303.6764,-525.0037 299.6192,-534.7909 308.8943,-529.67 303.6764,-525.0037"/>
</g>
<!-- \\Cloudonix\\Datamodels\\Tenants -->
<g id="node15" class="node">
<title>\\Cloudonix\\Datamodels\\Tenants</title>
<polygon fill="none" stroke="#000000" points="523.7789,-168 461.3632,-168 461.3632,-132 523.7789,-132 523.7789,-168"/>
<text text-anchor="middle" x="492.571" y="-146.7" font-family="Courier,monospace" font-size="11.00" fill="#000000">Tenants</text>
</g>
<!-- \\Cloudonix\\Client -->
<g id="node18" class="node">
<title>\\Cloudonix\\Client</title>
<polygon fill="none" stroke="#000000" points="263.8515,-141 208.6358,-141 208.6358,-105 263.8515,-105 263.8515,-141"/>
<text text-anchor="middle" x="236.2437" y="-119.7" font-family="Courier,monospace" font-size="11.00" fill="#000000">Client</text>
</g>
<!-- \\Cloudonix\\Datamodels\\Tenants&#45;&gt;\\Cloudonix\\Client -->
<g id="edge11" class="edge">
<title>\\Cloudonix\\Datamodels\\Tenants&#45;&gt;\\Cloudonix\\Client</title>
<path fill="none" stroke="#000000" d="M461.3965,-146.7163C414.3124,-141.7567 325.1703,-132.367 274.3159,-127.0103"/>
<polygon fill="none" stroke="#000000" points="274.3859,-123.4984 264.0742,-125.9315 273.6525,-130.4599 274.3859,-123.4984"/>
</g>
<!-- \\Cloudonix\\Datamodels\\Domains -->
<g id="node16" class="node">
<title>\\Cloudonix\\Datamodels\\Domains</title>
<polygon fill="none" stroke="#000000" points="523.7789,-114 461.3632,-114 461.3632,-78 523.7789,-78 523.7789,-114"/>
<text text-anchor="middle" x="492.571" y="-92.7" font-family="Courier,monospace" font-size="11.00" fill="#000000">Domains</text>
</g>
<!-- \\Cloudonix\\Datamodels\\Domains&#45;&gt;\\Cloudonix\\Client -->
<g id="edge12" class="edge">
<title>\\Cloudonix\\Datamodels\\Domains&#45;&gt;\\Cloudonix\\Client</title>
<path fill="none" stroke="#000000" d="M461.3965,-99.2837C414.3124,-104.2433 325.1703,-113.633 274.3159,-118.9897"/>
<polygon fill="none" stroke="#000000" points="273.6525,-115.5401 264.0742,-120.0685 274.3859,-122.5016 273.6525,-115.5401"/>
</g>
<!-- \\Cloudonix\\Tenants -->
<g id="node17" class="node">
<title>\\Cloudonix\\Tenants</title>
<polygon fill="none" stroke="#000000" points="523.7789,-60 461.3632,-60 461.3632,-24 523.7789,-24 523.7789,-60"/>
<text text-anchor="middle" x="492.571" y="-38.7" font-family="Courier,monospace" font-size="11.00" fill="#000000">Tenants</text>
</g>
<!-- \\Cloudonix\\Datamodel -->
<g id="node19" class="node">
<title>\\Cloudonix\\Datamodel</title>
<polygon fill="none" stroke="#000000" points="274.1544,-60 198.3329,-60 198.3329,-24 274.1544,-24 274.1544,-60"/>
<text text-anchor="middle" x="236.2437" y="-38.7" font-family="Courier,monospace" font-size="11.00" fill="#000000">Datamodel</text>
</g>
<!-- \\Cloudonix\\Tenants&#45;&gt;\\Cloudonix\\Datamodel -->
<g id="edge6" class="edge">
<title>\\Cloudonix\\Tenants&#45;&gt;\\Cloudonix\\Datamodel</title>
<path fill="none" stroke="#000000" stroke-dasharray="1,5" d="M461.3965,-42C417.3344,-42 336.44,-42 284.56,-42"/>
<polygon fill="none" stroke="#000000" points="284.2721,-38.5001 274.2721,-42 284.272,-45.5001 284.2721,-38.5001"/>
</g>
</g>
</svg>
